<svg width="16" height="16" viewBox="0 0 16 16" fill="none" xmlns="http://www.w3.org/2000/svg">
<g clip-path="url(#clip0_57_3)">
<path d="M10.8965 0.0606056C10.6096 0.235637 10.3752 0.495268 10.139 0.731676C10.0965 0.774042 10.0965 0.774042 10.0531 0.817263C9.97538 0.894758 9.89773 0.972347 9.8201 1.04995C9.73602 1.13398 9.65184 1.21792 9.56768 1.30188C9.38417 1.48496 9.20078 1.66816 9.01742 1.85139C8.9028 1.96592 8.78816 2.08042 8.67352 2.19492C8.35568 2.51239 8.03786 2.82988 7.72016 3.14748C7.68974 3.17789 7.68974 3.17789 7.6587 3.20891C7.63838 3.22923 7.61805 3.24955 7.59711 3.27049C7.55592 3.31166 7.51474 3.35283 7.47356 3.39399C7.45313 3.41442 7.4327 3.43484 7.41165 3.45588C7.08026 3.78715 6.74865 4.11821 6.41695 4.44918C6.07586 4.78953 5.73494 5.13007 5.39419 5.47078C5.20309 5.66185 5.01191 5.85285 4.82053 6.04366C4.6577 6.20601 4.49503 6.36852 4.33257 6.53123C4.24976 6.61417 4.16687 6.69704 4.08377 6.77969C3.99355 6.86944 3.9037 6.95955 3.81388 7.04969C3.77471 7.08848 3.77471 7.08848 3.73475 7.12806C3.48986 7.37504 3.28727 7.61803 3.27148 7.97857C3.27972 8.22156 3.3334 8.40406 3.50075 8.58449C3.52601 8.61176 3.55127 8.63903 3.57729 8.66712C3.70274 8.7989 3.83006 8.9286 3.95867 9.05729C3.98811 9.08685 4.01754 9.11642 4.04697 9.146C4.12696 9.22636 4.20704 9.30662 4.28714 9.38687C4.37385 9.47376 4.46047 9.56075 4.54711 9.64772C4.75573 9.8571 4.9645 10.0663 5.1733 10.2755C5.23232 10.3347 5.29133 10.3938 5.35034 10.4529C5.71739 10.8208 6.08449 11.1886 6.45173 11.5562C6.53654 11.6411 6.62134 11.726 6.70615 11.8109C6.73776 11.8425 6.73776 11.8425 6.77001 11.8748C7.11198 12.2172 7.45362 12.5599 7.79514 12.9027C8.14626 13.2551 8.49767 13.6073 8.84937 13.9591C9.04664 14.1565 9.24378 14.354 9.44059 14.5519C9.60803 14.7202 9.77573 14.8882 9.94378 15.0559C10.0295 15.1414 10.115 15.2271 10.2002 15.3131C10.2927 15.4064 10.3857 15.499 10.4788 15.5916C10.5055 15.6188 10.5323 15.6459 10.5598 15.6739C10.7785 15.8897 10.9801 16.018 11.2949 16.0176C11.6774 16.0054 11.8915 15.8213 12.1562 15.5626C12.1861 15.5342 12.216 15.5059 12.2468 15.4767C12.5089 15.2255 12.7097 14.9943 12.7305 14.6172C12.7177 14.1769 12.419 13.9141 12.1268 13.6231C12.1028 13.5991 12.0787 13.575 12.054 13.5502C11.974 13.4701 11.8938 13.3902 11.8137 13.3102C11.7561 13.2526 11.6985 13.195 11.6409 13.1374C11.5172 13.0137 11.3934 12.89 11.2696 12.7664C11.0906 12.5876 10.9117 12.4088 10.7328 12.23C10.4425 11.9397 10.1522 11.6496 9.86178 11.3595C9.5798 11.0778 9.29785 10.7961 9.01595 10.5143C8.98986 10.4882 8.98986 10.4882 8.96323 10.4616C8.87595 10.3744 8.78866 10.2871 8.70138 10.1999C7.9781 9.47691 7.25471 8.75407 6.53125 8.03131C6.57351 7.93698 6.62057 7.87179 6.69373 7.79907C6.71444 7.77833 6.73515 7.75759 6.75649 7.73623C6.77931 7.7137 6.80212 7.69118 6.82562 7.66797C6.84981 7.64384 6.874 7.6197 6.89893 7.59484C6.98027 7.51376 7.06184 7.4329 7.14341 7.35203C7.20168 7.29404 7.25993 7.23603 7.31817 7.17801C7.44375 7.05293 7.56943 6.92795 7.69518 6.80304C7.89406 6.60548 8.09263 6.4076 8.29116 6.20968C8.35911 6.14194 8.42707 6.0742 8.49503 6.00647C8.51201 5.98954 8.529 5.97261 8.5465 5.95517C8.73983 5.76248 8.93323 5.56986 9.12666 5.37727C9.14434 5.35967 9.16202 5.34206 9.18023 5.32393C9.46653 5.03887 9.75302 4.75401 10.0395 4.46918C10.3339 4.17658 10.6279 3.88367 10.9217 3.59051C11.1028 3.40981 11.2842 3.22936 11.4659 3.04923C11.5905 2.92566 11.7148 2.80179 11.8389 2.67771C11.9104 2.6062 11.9821 2.53487 12.054 2.46379C12.1322 2.38654 12.2099 2.30882 12.2875 2.23096C12.3214 2.1978 12.3214 2.1978 12.356 2.16397C12.5634 1.95387 12.7053 1.72028 12.7208 1.4201C12.71 1.02121 12.4813 0.776888 12.2099 0.506834C12.1641 0.461072 12.1191 0.414683 12.074 0.368223C11.7497 0.039616 11.3561 -0.148187 10.8965 0.0606056Z" fill="#FFF1E9"/>
</g>
<defs>
<clipPath id="clip0_57_3">
<rect width="16" height="16" fill="white" transform="matrix(-1 0 0 1 16 0)"/>
</clipPath>
</defs>
</svg>
