<svg width="16" height="16" viewBox="0 0 16 16" fill="none" xmlns="http://www.w3.org/2000/svg">
<g clip-path="url(#clip0_57_3)">
<path d="M5.10352 0.0606056C5.39044 0.235637 5.62485 0.495268 5.86101 0.731676C5.90351 0.774042 5.90351 0.774042 5.94687 0.817263C6.02462 0.894758 6.10227 0.972347 6.1799 1.04995C6.26398 1.13398 6.34816 1.21792 6.43232 1.30188C6.61583 1.48496 6.79922 1.66816 6.98258 1.85139C7.0972 1.96592 7.21184 2.08042 7.32648 2.19492C7.64432 2.51239 7.96214 2.82988 8.27984 3.14748C8.31026 3.17789 8.31026 3.17789 8.3413 3.20891C8.36162 3.22923 8.38195 3.24955 8.40289 3.27049C8.44408 3.31166 8.48526 3.35283 8.52644 3.39399C8.54687 3.41442 8.5673 3.43484 8.58835 3.45588C8.91974 3.78715 9.25135 4.11821 9.58305 4.44918C9.92414 4.78954 10.2651 5.13007 10.6058 5.47078C10.7969 5.66185 10.9881 5.85285 11.1795 6.04366C11.3423 6.20601 11.505 6.36852 11.6674 6.53123C11.7502 6.61417 11.8331 6.69704 11.9162 6.77969C12.0064 6.86944 12.0963 6.95955 12.1861 7.04969C12.2253 7.08848 12.2253 7.08848 12.2652 7.12806C12.5101 7.37504 12.7127 7.61803 12.7285 7.97857C12.7203 8.22156 12.6666 8.40406 12.4992 8.58449C12.474 8.61176 12.4487 8.63903 12.4227 8.66712C12.2973 8.79889 12.1699 8.9286 12.0413 9.05729C12.0119 9.08685 11.9825 9.11642 11.953 9.146C11.873 9.22636 11.793 9.30662 11.7129 9.38687C11.6261 9.47376 11.5395 9.56075 11.4529 9.64772C11.2443 9.8571 11.0355 10.0663 10.8267 10.2755C10.7677 10.3347 10.7087 10.3938 10.6497 10.4529C10.2826 10.8208 9.91551 11.1886 9.54827 11.5562C9.46346 11.6411 9.37866 11.726 9.29385 11.8109C9.26224 11.8425 9.26224 11.8425 9.22999 11.8748C8.88802 12.2172 8.54638 12.5599 8.20486 12.9027C7.85374 13.2551 7.50233 13.6073 7.15063 13.9591C6.95336 14.1565 6.75622 14.354 6.55941 14.5519C6.39197 14.7202 6.22427 14.8882 6.05622 15.0559C5.97055 15.1414 5.885 15.2271 5.79979 15.3131C5.70734 15.4064 5.61429 15.499 5.52117 15.5916C5.49446 15.6188 5.46775 15.6459 5.44023 15.6739C5.22153 15.8897 5.01987 16.018 4.70508 16.0176C4.32265 16.0054 4.10849 15.8213 3.84375 15.5626C3.81386 15.5342 3.78397 15.5059 3.75317 15.4767C3.4911 15.2255 3.29029 14.9943 3.26953 14.6172C3.28229 14.1769 3.58102 13.9141 3.87316 13.6231C3.89721 13.5991 3.92126 13.575 3.94604 13.5502C4.02604 13.4701 4.10616 13.3902 4.18627 13.3102C4.24388 13.2526 4.30149 13.195 4.35909 13.1374C4.4828 13.0137 4.60656 12.89 4.73037 12.7664C4.90936 12.5876 5.08828 12.4088 5.26717 12.23C5.55746 11.9397 5.84782 11.6496 6.13822 11.3595C6.4202 11.0778 6.70215 10.7961 6.98405 10.5143C7.01014 10.4882 7.01014 10.4882 7.03677 10.4616C7.12405 10.3744 7.21134 10.2871 7.29862 10.1999C8.0219 9.47691 8.74529 8.75407 9.46875 8.03131C9.42649 7.93699 9.37943 7.87179 9.30627 7.79907C9.28556 7.77833 9.26485 7.75759 9.24351 7.73623C9.22069 7.7137 9.19788 7.69118 9.17438 7.66797C9.15019 7.64384 9.126 7.6197 9.10107 7.59484C9.01973 7.51376 8.93816 7.4329 8.85659 7.35203C8.79832 7.29404 8.74007 7.23603 8.68183 7.17801C8.55625 7.05293 8.43057 6.92795 8.30482 6.80304C8.10594 6.60548 7.90737 6.4076 7.70884 6.20968C7.64089 6.14194 7.57293 6.0742 7.50497 6.00647C7.48799 5.98954 7.471 5.97261 7.4535 5.95517C7.26017 5.76248 7.06677 5.56986 6.87334 5.37727C6.85566 5.35967 6.83798 5.34206 6.81977 5.32393C6.53347 5.03887 6.24698 4.75401 5.96045 4.46918C5.66611 4.17658 5.37208 3.88367 5.07829 3.59051C4.89718 3.40981 4.71583 3.22936 4.53415 3.04923C4.40954 2.92566 4.28523 2.80179 4.16113 2.67771C4.0896 2.6062 4.01791 2.53487 3.94595 2.46379C3.86778 2.38654 3.7901 2.30882 3.71253 2.23096C3.67862 2.1978 3.67862 2.1978 3.64403 2.16397C3.43663 1.95387 3.29468 1.72028 3.27917 1.4201C3.29002 1.02121 3.51875 0.776888 3.79007 0.506834C3.83586 0.461072 3.88094 0.414683 3.92603 0.368223C4.25027 0.039616 4.64388 -0.148187 5.10352 0.0606056Z" fill="#FFF1E9"/>
</g>
<defs>
<clipPath id="clip0_57_3">
<rect width="16" height="16" fill="white"/>
</clipPath>
</defs>
</svg>
