<svg width="104" height="118" viewBox="0 0 104 118" fill="none" xmlns="http://www.w3.org/2000/svg">
<path d="M0.00207723 0C34.3214 0 68.6407 0 104 0C104 1.50308 103.997 2.93889 103.859 4.42386C103.836 4.684 103.836 4.684 103.813 4.94939C103.762 5.5242 103.71 6.09885 103.658 6.67352C103.621 7.09229 103.583 7.51107 103.546 7.92985C103.445 9.07583 103.341 10.2217 103.238 11.3675C103.127 12.6051 103.016 13.8428 102.906 15.0805C102.69 17.5032 102.473 19.9258 102.255 22.3484C102.002 25.1702 101.749 27.9922 101.497 30.8142C101.047 35.8495 100.596 40.8848 100.145 45.92C99.7066 50.8047 99.269 55.6896 98.8321 60.5744C98.8052 60.8753 98.7783 61.1762 98.7506 61.4862C98.6424 62.6958 98.5343 63.9053 98.4261 65.1148C97.597 74.3855 96.7674 83.6562 95.9362 92.9267C95.849 93.8989 95.7619 94.8712 95.6748 95.8435C95.5745 96.9631 95.4741 98.0828 95.3736 99.2024C95.3373 99.6069 95.3011 100.012 95.2649 100.416C95.0912 102.356 94.9154 104.296 94.7145 106.234C93.1 106.873 91.4542 107.334 89.7788 107.79C89.4656 107.876 89.1525 107.962 88.8394 108.048C88.1615 108.234 87.4836 108.42 86.8055 108.605C85.1429 109.06 83.481 109.517 81.8191 109.973C81.2185 110.138 80.6179 110.303 80.0173 110.468C75.0534 111.832 70.0935 113.21 65.1336 114.587C64.1672 114.855 63.2007 115.124 62.2343 115.392C61.1056 115.705 59.9769 116.019 58.8482 116.332C58.6395 116.39 58.4307 116.448 58.2156 116.508C57.6289 116.67 57.0423 116.833 56.4556 116.996C56.2009 117.067 56.2009 117.067 55.941 117.139C55.7813 117.184 55.6216 117.228 55.4571 117.274C55.3044 117.316 55.1517 117.357 54.9944 117.401C54.5731 117.52 54.156 117.654 53.7393 117.789C52.1088 118.187 50.7716 117.979 49.1967 117.524C49.0175 117.475 48.8383 117.425 48.6538 117.374C48.0586 117.208 47.4646 117.039 46.8704 116.87C46.4433 116.751 46.0161 116.631 45.5888 116.512C44.4349 116.19 43.2818 115.865 42.1288 115.539C40.9256 115.2 39.7217 114.863 38.5177 114.526C37.0242 114.108 35.5308 113.69 34.0377 113.271C30.5676 112.297 27.0949 111.332 23.6203 110.374C23.1525 110.245 22.6846 110.116 22.2168 109.986C20.4241 109.492 18.6314 108.997 16.8384 108.504C15.8007 108.218 14.7632 107.932 13.7259 107.645C13.3455 107.54 12.9649 107.435 12.5843 107.331C12.068 107.189 11.5521 107.046 11.0361 106.903C10.7471 106.823 10.4581 106.744 10.1603 106.662C9.51974 106.464 9.51974 106.464 9.28761 106.234C9.22267 105.749 9.1729 105.262 9.12864 104.775C9.11413 104.619 9.09962 104.462 9.08467 104.301C9.03509 103.763 8.98706 103.225 8.939 102.687C8.90294 102.292 8.86679 101.897 8.83056 101.502C8.7283 100.383 8.62745 99.2636 8.52682 98.1445C8.43814 97.1599 8.34869 96.1754 8.25926 95.1908C7.93488 91.6186 7.61368 88.0461 7.29295 84.4736C7.21197 83.5716 7.13095 82.6697 7.04991 81.7677C6.09979 71.1927 5.15421 60.6173 4.21213 50.0415C4.13015 49.1211 4.04816 48.2008 3.96617 47.2804C3.94582 47.052 3.92548 46.8236 3.90452 46.5883C3.56992 42.8326 3.23435 39.0769 2.89842 35.3212C2.54916 31.4163 2.20074 27.5114 1.85314 23.6063C1.65963 21.4326 1.46577 19.2588 1.27094 17.0852C1.10661 15.2517 0.943038 13.4182 0.780464 11.5846C0.697801 10.6525 0.61478 9.72049 0.530775 8.78853C0.45386 7.93514 0.377992 7.08166 0.302932 6.22811C0.26293 5.77625 0.221833 5.32449 0.180686 4.87273C0.156907 4.6 0.133128 4.32726 0.108628 4.04626C0.0879003 3.81388 0.0671722 3.5815 0.045816 3.34208C-0.0144653 2.22957 0.00207723 1.11412 0.00207723 0ZM19.2696 21.892C19.2696 23.529 19.294 25.1163 19.4219 26.7412C19.4373 26.9473 19.4528 27.1535 19.4687 27.3658C19.5175 28.0138 19.5676 28.6616 19.6178 29.3094C19.6514 29.753 19.6849 30.1966 19.7184 30.6403C19.7999 31.7186 19.8826 32.7968 19.966 33.875C26.2517 33.8804 32.5374 33.8845 38.8231 33.887C41.7418 33.8882 44.6604 33.8898 47.5791 33.8924C50.1233 33.8947 52.6676 33.8962 55.2118 33.8967C56.5586 33.897 57.9055 33.8977 59.2523 33.8994C60.5209 33.901 61.7894 33.9014 63.058 33.9011C63.5227 33.9012 63.9874 33.9016 64.4521 33.9025C65.0887 33.9036 65.7252 33.9034 66.3618 33.9027C66.5438 33.9034 66.7258 33.9041 66.9134 33.9048C68.2213 33.9013 69.5052 33.7928 70.8042 33.6446C70.7913 33.8072 70.7784 33.9698 70.7651 34.1373C70.6451 35.65 70.5261 37.1628 70.4075 38.6757C70.3627 39.2459 70.3177 39.816 70.2724 40.3862C70.2073 41.207 70.143 42.0279 70.0788 42.8488C70.0483 43.2295 70.0483 43.2295 70.0173 43.6178C69.9894 43.9775 69.9894 43.9775 69.9609 44.3445C69.9444 44.5537 69.9279 44.763 69.9109 44.9787C69.8699 45.7336 69.8701 46.4848 69.8757 47.2407C69.6094 47.2395 69.3431 47.2383 69.0687 47.237C62.2626 47.2095 55.4587 47.2551 48.6532 47.3415C48.4543 47.344 48.2555 47.3465 48.0506 47.3492C45.6013 47.3804 43.152 47.4129 40.7028 47.4459C38.5867 47.4745 36.4705 47.502 34.3544 47.5295C30.0225 47.5859 25.6907 47.6433 21.3588 47.7016C21.3951 48.215 21.4316 48.7284 21.4681 49.2418C21.4884 49.5277 21.5087 49.8136 21.5296 50.1081C21.6056 51.1242 21.7016 52.137 21.8086 53.1503C21.8283 53.3395 21.848 53.5288 21.8684 53.7238C21.9094 54.1158 21.9508 54.5078 21.9924 54.8998C22.0562 55.5028 22.1183 56.1059 22.1803 56.7091C22.2207 57.0927 22.2612 57.4763 22.3019 57.8599C22.3202 58.0402 22.3386 58.2204 22.3576 58.4061C22.3795 59.2303 22.3795 59.2303 22.7516 59.915C23.3102 59.938 23.8621 59.946 24.4207 59.9443C24.6859 59.9448 24.6859 59.9448 24.9564 59.9454C25.5534 59.9463 26.1504 59.9455 26.7473 59.9448C27.1736 59.9451 27.5998 59.9455 28.026 59.9461C29.1878 59.9471 30.3495 59.9467 31.5113 59.946C32.7266 59.9454 33.9418 59.9459 35.1571 59.9463C37.2005 59.9467 39.244 59.9461 41.2875 59.9451C43.6471 59.9438 46.0068 59.9442 48.3664 59.9455C50.3921 59.9465 52.4178 59.9467 54.4435 59.9461C55.6533 59.9457 56.8631 59.9457 58.0729 59.9464C59.2125 59.9471 60.3521 59.9466 61.4917 59.9453C61.9089 59.945 62.326 59.9451 62.7432 59.9456C64.7468 59.9478 66.7237 59.937 68.715 59.6846C68.6801 59.9902 68.6801 59.9902 68.6445 60.3021C68.4248 62.2276 68.2061 64.1532 67.9886 66.079C67.8767 67.0689 67.7645 68.0588 67.6513 69.0485C67.5421 70.0047 67.4338 70.961 67.3262 71.9173C67.2851 72.2812 67.2436 72.645 67.2018 73.0088C67.143 73.5204 67.0856 74.0322 67.0284 74.544C66.9954 74.8347 66.9624 75.1254 66.9284 75.4248C66.8534 76.3306 66.846 77.2116 66.8579 78.12C66.7228 78.1444 66.5877 78.1689 66.4486 78.1941C64.8518 78.4958 63.2983 78.902 61.7345 79.3397C61.2005 79.4864 60.6664 79.633 60.1322 79.7794C59.2994 80.0085 58.467 80.2385 57.6353 80.4714C56.8262 80.6974 56.0161 80.919 55.2056 81.14C54.9585 81.2103 54.7113 81.2806 54.4566 81.3531C53.1066 81.7172 51.9866 81.9153 50.6082 81.5766C50.395 81.5247 50.1818 81.4727 49.9621 81.4192C49.1913 81.2216 48.4249 81.0112 47.6584 80.798C47.3793 80.7215 47.1002 80.6452 46.8126 80.5664C46.0757 80.3646 45.3391 80.1618 44.6027 79.9584C43.5616 79.6708 42.5203 79.3842 41.4787 79.0988C40.925 78.9471 40.3716 78.7946 39.8185 78.6411C39.5689 78.5726 39.3194 78.5041 39.0622 78.4336C38.8426 78.3729 38.6229 78.3122 38.3966 78.2496C37.8228 78.0936 37.8228 78.0936 37.1442 78.12C37.1511 77.8199 37.158 77.5199 37.165 77.2108C37.1648 75.614 37.0102 74.0314 36.8594 72.4433C36.8101 71.9232 36.7628 71.4029 36.7157 70.8826C36.5589 69.0717 36.5589 69.0717 36.2156 67.2892C31.9257 67.2892 27.6358 67.2892 23.2159 67.2892C23.8287 74.1333 24.4416 80.9774 25.073 88.029C28.3958 88.9463 31.7185 89.8636 35.142 90.8087C38.2807 91.6756 38.2807 91.6756 39.5685 92.0321C40.4379 92.2721 41.3084 92.5079 42.1796 92.7416C45.9062 93.7453 45.9062 93.7453 47.6995 94.4077C52.006 95.9504 55.4912 94.8501 59.6892 93.5386C60.385 93.3237 61.0837 93.1192 61.7831 92.9162C63.0165 92.5583 64.2494 92.1994 65.4787 91.8277C68.3796 90.9507 71.2952 90.1323 74.2174 89.3282C74.678 89.2011 75.1385 89.074 75.599 88.9468C76.7089 88.6404 77.8189 88.3345 78.9291 88.029C79.6694 79.8698 80.4088 71.7106 81.147 63.5513C81.2342 62.5879 81.3214 61.6245 81.4086 60.6611C81.4259 60.4693 81.4433 60.2775 81.4612 60.0799C81.7422 56.9749 82.0238 53.8699 82.3055 50.765C82.5947 47.5787 82.8832 44.3924 83.1712 41.2061C83.3489 39.2401 83.5271 37.2742 83.7059 35.3083C83.8285 33.96 83.9504 32.6117 84.0719 31.2633C84.142 30.4855 84.2125 29.7078 84.2835 28.93C84.3605 28.0861 84.4365 27.2421 84.5122 26.3981C84.5348 26.1533 84.5574 25.9085 84.5806 25.6563C84.6008 25.4287 84.6211 25.201 84.6419 24.9665C84.6595 24.7719 84.6771 24.5773 84.6953 24.3768C84.7433 23.5498 84.7325 22.7204 84.7325 21.892C63.1297 21.892 41.527 21.892 19.2696 21.892Z" fill="#D5CABE"/>
</svg>
