<svg width="76" height="109" viewBox="0 0 76 109" fill="none" xmlns="http://www.w3.org/2000/svg">
<path d="M21.7683 0.00697338C22.1652 0.00581943 22.5621 0.00430573 22.959 0.00246472C24.0257 -0.00136842 25.0924 7.89696e-05 26.1591 0.00278659C27.2823 0.00495589 28.4056 0.00293724 29.5288 0.00160962C31.4141 7.05427e-05 33.2993 0.00208573 35.1846 0.0061442C37.3555 0.010764 39.5264 0.00926679 41.6973 0.00459344C43.5706 0.000724139 45.4439 0.000204487 47.3172 0.00241866C48.432 0.00373353 49.5467 0.00394353 50.6614 0.00111406C51.7101 -0.00136241 52.7586 0.000405448 53.8073 0.00526968C54.1891 0.00637984 54.5709 0.00609183 54.9528 0.00419757C60.9864 -0.0229452 66.0695 2.0396 70.4416 6.24614C74.6728 10.5953 76.0527 16.0601 75.9884 21.9616C75.8436 27.3906 73.1589 32.0337 69.3385 35.7782C68.6496 36.3731 67.9451 36.9367 67.2121 37.4764C67.3613 37.5946 67.5104 37.7128 67.664 37.8346C72.0533 41.359 75.0941 45.8425 75.9303 51.4862C76.3014 57.7277 75.2631 63.1518 71.0562 67.9678C67.5166 71.8891 62.7526 74.5265 57.4161 74.879C56.7293 74.9002 56.0447 74.9057 55.3576 74.9022C55.1147 74.9012 54.8718 74.9002 54.6215 74.8991C50.003 74.8353 45.04 73.2923 41.6956 69.9537C41.6948 70.2058 41.6941 70.458 41.6933 70.7177C41.6854 73.1094 41.673 75.501 41.6565 77.8926C41.6482 79.1218 41.6413 80.351 41.638 81.5801C41.6347 82.7694 41.6274 83.9585 41.6173 85.1476C41.6142 85.5983 41.6125 86.049 41.6123 86.4997C41.6095 89.9351 41.3463 93.2726 39.9414 96.4609C39.878 96.6085 39.8146 96.756 39.7493 96.908C38.6445 99.3901 36.9953 101.365 35.1038 103.28C34.9512 103.435 34.7985 103.59 34.6412 103.75C32.7132 105.581 30.4014 106.803 27.9273 107.725C27.7667 107.784 27.6061 107.844 27.4407 107.906C22.2712 109.727 16.3429 109.203 11.4404 106.869C6.60338 104.45 2.88366 100.128 1.08846 95.0488C1.01609 94.8231 0.94373 94.5974 0.869174 94.3648C0.801196 94.1587 0.733219 93.9527 0.663181 93.7404C-0.707041 88.6806 0.102513 83.0228 2.57028 78.4445C4.17286 75.6753 6.38054 73.3309 8.94941 71.4396C8.80029 71.3214 8.65118 71.2032 8.49755 71.0814C4.1082 67.5569 1.0674 63.0735 0.231261 57.4298C-0.139747 51.1908 0.896853 45.7603 5.10609 40.9477C6.27801 39.6479 7.55772 38.5405 8.94941 37.4764C8.76165 37.3245 8.57389 37.1726 8.38043 37.0162C4.09943 33.4941 0.997438 29.0725 0.231261 23.4666C-0.175578 17.6423 0.748553 12.1153 4.60529 7.53386C9.24343 2.29085 14.8653 -0.0272723 21.7683 0.00697338ZM9.77255 12.1192C7.38445 15.3579 6.63728 18.997 7.12787 22.9326C7.84446 26.576 9.94158 29.618 12.9555 31.7443C16.1912 33.7925 19.469 34.1825 23.1953 34.1422C23.4918 34.1413 23.7884 34.1407 24.0849 34.1403C25.1664 34.137 26.2478 34.1281 27.3293 34.1199C29.7545 34.1067 32.1798 34.0936 34.6786 34.0801C34.6786 25.1138 34.6786 16.1475 34.6786 6.90948C30.8302 6.88321 30.8302 6.88321 26.904 6.85642C26.1005 6.84869 25.2969 6.84096 24.469 6.83299C23.7349 6.83015 23.7349 6.83015 23.0007 6.82844C22.6792 6.82716 22.3577 6.82421 22.0363 6.81984C17.1225 6.7565 12.9883 8.28464 9.77255 12.1192ZM41.483 6.90948C41.483 15.8758 41.483 24.8421 41.483 34.0801C45.1209 34.0998 45.1209 34.0998 48.8323 34.1199C49.971 34.1286 49.971 34.1286 51.1327 34.1374C51.8272 34.1396 51.8272 34.1396 52.5218 34.1408C52.8255 34.1418 53.1293 34.144 53.433 34.1473C56.2148 34.1758 59.0402 34.0182 61.5374 32.6605C61.6787 32.5861 61.82 32.5118 61.9656 32.4352C65.2453 30.6579 67.5089 27.8403 68.7072 24.3057C69.7258 20.5209 69.1942 16.7035 67.2354 13.3066C65.0539 10.0682 61.9921 7.95515 58.1879 7.0387C56.6989 6.78457 55.1986 6.8321 53.693 6.84729C53.379 6.84823 53.0649 6.84888 52.7508 6.84924C51.5997 6.85255 50.4485 6.86144 49.2974 6.86968C45.4293 6.88938 45.4293 6.88938 41.483 6.90948ZM9.95944 45.9008C7.48758 49.1741 6.6143 52.8441 7.12787 56.8808C7.81196 60.3675 9.80466 63.4173 12.6398 65.5433C15.8187 67.6761 19.1546 68.1785 22.8838 68.1262C23.1886 68.1249 23.4934 68.1241 23.7981 68.1236C24.9088 68.1192 26.0193 68.1073 27.1299 68.0963C30.8665 68.0701 30.8665 68.0701 34.6786 68.0433C34.6786 59.077 34.6786 50.1107 34.6786 40.8727C32.1875 40.8552 29.6965 40.8377 27.1299 40.8196C26.3505 40.8119 25.5711 40.8042 24.7681 40.7962C24.0543 40.7934 24.0543 40.7934 23.3405 40.7917C23.0286 40.7904 22.7167 40.7874 22.4048 40.7831C17.5426 40.7184 13.2141 42.0957 9.95944 45.9008ZM45.3105 45.1181C45.1778 45.2434 45.0451 45.3687 44.9084 45.4979C42.6177 47.8361 41.5136 51.2541 41.4032 54.458C41.5338 58.2491 42.9926 61.6063 45.7357 64.2224C45.8865 64.3745 46.0372 64.5267 46.1926 64.6834C48.6494 67.0386 51.9534 68.051 55.3044 68.1494C59.3733 68.0299 62.9371 66.4628 65.7702 63.5201C68.4268 60.4141 69.4111 56.7787 69.1259 52.7598C68.6729 49.1993 66.7847 46.082 64.0624 43.7781C58.2173 39.3951 50.4323 39.9507 45.3105 45.1181ZM14.6242 76.2555C14.483 76.3295 14.3418 76.4036 14.1964 76.4799C10.8497 78.2892 8.67812 81.0618 7.43935 84.6401C6.52712 88.0444 6.85541 91.6077 8.47097 94.7495C10.5859 98.3196 13.6207 100.742 17.6676 101.794C21.4309 102.567 25.0236 101.82 28.2994 99.8838C31.5645 97.6703 33.4437 94.7291 34.4659 90.9684C34.6368 89.959 34.7046 88.9925 34.7027 87.9693C34.7028 87.7547 34.7028 87.7547 34.7028 87.5358C34.7027 87.0684 34.701 86.6009 34.6993 86.1335C34.6989 85.8072 34.6986 85.481 34.6984 85.1547C34.6976 84.3001 34.6955 83.4455 34.6932 82.5909C34.691 81.7172 34.69 80.8435 34.689 79.9698C34.6867 78.2585 34.6831 76.5472 34.6786 74.8359C32.7652 74.821 30.8519 74.8098 28.9385 74.8029C28.0497 74.7996 27.1609 74.7952 26.2722 74.7879C25.4118 74.7809 24.5515 74.7771 23.6912 74.7755C23.3656 74.7743 23.04 74.7721 22.7145 74.7686C19.9373 74.7401 17.117 74.9006 14.6242 76.2555Z" fill="#D5CABE"/>
</svg>
