<svg width="114" height="114" viewBox="0 0 114 114" fill="none" xmlns="http://www.w3.org/2000/svg">
<path d="M35.1797 4.67578C36.1926 5.15976 36.5573 5.67821 37.054 6.67273C37.1205 6.80355 37.187 6.93438 37.2554 7.06918C37.4709 7.49463 37.6821 7.92206 37.8933 8.34961C38.0429 8.64647 38.1927 8.94316 38.3429 9.23969C38.6402 9.82715 38.9362 10.4152 39.2312 11.0039C39.7271 11.9911 40.2412 12.9684 40.76 13.9438C41.6553 15.6368 42.5375 17.3364 43.418 19.0371C45.3744 22.8133 47.3473 26.5728 49.4297 30.2812C49.5339 30.0841 49.638 29.8869 49.7454 29.6837C50.8968 27.5052 52.0529 25.3292 53.2148 23.1562C53.3342 22.9331 53.4535 22.7099 53.5764 22.4799C53.8476 21.9756 54.1216 21.473 54.3977 20.9714C54.471 20.835 54.5443 20.6985 54.6199 20.5579C55.021 19.8395 55.3881 19.3354 56.1094 18.9258C57.339 18.7696 57.339 18.7696 57.8906 18.9258C58.9068 19.7954 59.4315 20.7386 60.0092 21.9161C60.1027 22.1024 60.1963 22.2886 60.2926 22.4804C60.5996 23.0928 60.9033 23.7068 61.207 24.3208C61.4199 24.7476 61.6329 25.1742 61.8462 25.6008C62.2916 26.4931 62.7356 27.3861 63.1784 28.2797C63.7471 29.4271 64.3185 30.5731 64.8908 31.7187C65.3303 32.5986 65.7688 33.4791 66.207 34.3597C66.4175 34.7826 66.6282 35.2055 66.839 35.6282C67.1326 36.2173 67.4249 36.807 67.7169 37.3968C67.8047 37.5725 67.8925 37.7482 67.9829 37.9293C68.5781 39.1365 68.5781 39.1365 68.5781 39.6328C69.9065 38.5071 71.143 37.3115 72.3633 36.0703C74.2386 34.163 74.2386 34.163 75.2439 33.301C76.3464 32.3535 77.3554 31.3163 78.375 30.2812C82.4785 26.1156 82.4785 26.1156 83.7883 25.9673C84.8194 26.0721 85.2075 26.2036 85.9453 26.9414C86.5161 28.5986 86.7644 30.3682 87.0148 32.098C87.0499 32.333 87.0851 32.568 87.1212 32.8101C87.2374 33.5893 87.3516 34.3688 87.4658 35.1483C87.5491 35.7103 87.6326 36.2723 87.7162 36.8342C87.9185 38.1969 88.1195 39.5597 88.32 40.9225C88.5537 42.5111 88.7887 44.0994 89.0238 45.6878C89.4432 48.5215 89.8612 51.3555 90.2786 54.1896C90.6833 56.9378 91.0891 59.6859 91.496 62.4338C91.9398 65.4304 92.383 68.4272 92.8251 71.4241C92.8723 71.7436 92.9194 72.0632 92.9665 72.3827C92.9897 72.5399 93.0129 72.6971 93.0368 72.859C93.2001 73.9657 93.3638 75.0723 93.5277 76.1789C93.7481 77.6675 93.9675 79.1563 94.1862 80.6451C94.2666 81.1918 94.3474 81.7384 94.4285 82.285C94.5391 83.0302 94.6484 83.7755 94.7575 84.5209C94.79 84.7378 94.8224 84.9547 94.8559 85.1782C95.002 86.1857 95.1129 87.1504 95.0742 88.1719C94.8835 88.2789 94.8835 88.2789 94.6889 88.3881C91.5355 90.1597 88.4016 91.9618 85.2809 93.7904C84.1673 94.4424 83.0523 95.0922 81.9375 95.7422C81.4922 96.0019 81.0469 96.2617 80.6016 96.5215C76.5938 98.8594 76.5938 98.8594 72.5859 101.197C72.3654 101.326 72.1449 101.455 71.9177 101.587C71.4733 101.846 71.0289 102.106 70.5845 102.365C69.4572 103.022 68.33 103.68 67.203 104.338C66.0924 104.986 64.9814 105.634 63.8702 106.282C63.2405 106.649 62.6112 107.017 61.9819 107.385C61.5969 107.609 61.2119 107.833 60.8269 108.058C60.6513 108.161 60.4757 108.264 60.2948 108.37C60.1337 108.463 59.9726 108.557 59.8067 108.654C59.667 108.735 59.5272 108.817 59.3833 108.901C58.2534 109.498 57.1268 109.516 55.8867 109.324C54.632 108.852 53.4859 108.208 52.3242 107.543C52.1298 107.432 51.9354 107.321 51.7351 107.206C50.3835 106.43 49.0405 105.64 47.6982 104.847C46.4985 104.143 45.2921 103.45 44.0859 102.756C41.1133 101.044 38.1505 99.3147 35.1888 97.5837C34.5272 97.197 33.8654 96.8105 33.2036 96.4241C32.9841 96.2959 32.7647 96.1677 32.5385 96.0356C31.1456 95.223 29.7491 94.4167 28.3507 93.6135C26.0832 92.3106 23.8266 90.9916 21.5837 89.647C21.3425 89.5025 21.1013 89.358 20.8528 89.2091C19.1773 88.2007 19.1773 88.2007 18.9258 87.9492C18.9325 85.5906 19.5027 83.1769 19.8833 80.8561C19.9599 80.3846 20.0365 79.9131 20.1131 79.4416C20.3215 78.159 20.5309 76.8765 20.7405 75.594C20.9632 74.2309 21.1848 72.8675 21.4065 71.5041C21.784 69.1834 22.1621 66.8627 22.5407 64.5421C23.127 60.9474 23.7125 57.3526 24.2976 53.7577C24.3216 53.6101 24.3456 53.4625 24.3704 53.3104C24.5878 51.9746 24.8052 50.6387 25.0226 49.3029C25.2624 47.8299 25.5021 46.357 25.7419 44.8841C26.84 38.1405 27.9357 31.3965 29.017 24.6502C29.0957 24.159 29.1745 23.6678 29.2532 23.1766C29.7053 20.3577 30.1564 17.5386 30.6049 14.7191C30.7575 13.761 30.9108 12.803 31.0642 11.8451C31.1637 11.2225 31.2621 10.5997 31.3604 9.97697C31.4186 9.61362 31.4769 9.25028 31.5352 8.88695C31.5722 8.64944 31.5722 8.64944 31.61 8.40712C32.0215 5.86879 32.0215 5.86879 32.7583 5.02368C33.5781 4.57811 34.2645 4.48338 35.1797 4.67578Z" fill="#C0A88D"/>
<path d="M35.1797 4.67578C36.1926 5.15976 36.5573 5.67821 37.054 6.67273C37.1205 6.80355 37.187 6.93438 37.2554 7.06918C37.4709 7.49463 37.6821 7.92206 37.8933 8.34961C38.0429 8.64647 38.1927 8.94316 38.3429 9.23969C38.6402 9.82715 38.9362 10.4152 39.2312 11.0039C39.7271 11.9911 40.2412 12.9684 40.76 13.9438C41.6553 15.6368 42.5375 17.3364 43.418 19.0371C45.3744 22.8133 47.3473 26.5728 49.4297 30.2812C49.5339 30.0841 49.638 29.8869 49.7454 29.6837C50.8968 27.5052 52.0529 25.3292 53.2148 23.1562C53.3342 22.9331 53.4535 22.7099 53.5764 22.4799C53.8476 21.9756 54.1216 21.473 54.3977 20.9714C54.471 20.835 54.5443 20.6985 54.6199 20.5579C55.021 19.8395 55.3881 19.3354 56.1094 18.9258C57.339 18.7696 57.339 18.7696 57.8906 18.9258C58.9154 19.799 59.4434 20.7648 60.0296 21.9641C60.1732 22.251 60.1732 22.251 60.3197 22.5437C60.6338 23.1727 60.9448 23.8033 61.2557 24.4339C61.4736 24.8717 61.6916 25.3094 61.9099 25.747C62.4825 26.8965 63.0524 28.0473 63.6218 29.1984C64.2038 30.3738 64.7883 31.548 65.3727 32.7222C66.5178 35.0245 67.6602 37.3282 68.8008 39.6328C68.5898 39.8806 68.3786 40.1282 68.1674 40.3758C68.0498 40.5137 67.9322 40.6516 67.811 40.7937C67.3522 41.3208 66.8679 41.8172 66.3742 42.3116C66.1756 42.5105 65.9769 42.7094 65.7723 42.9144C65.5685 43.1173 65.3647 43.3202 65.1548 43.5293C64.9527 43.7322 64.7507 43.9351 64.5425 44.1442C63.6789 45.0065 62.8163 45.8586 61.8897 46.6534C60.7943 47.5932 59.7935 48.6247 58.7812 49.6523C57.6297 50.8213 56.4767 51.9614 55.2309 53.0296C54.2948 53.8643 53.4267 54.7709 52.5469 55.6641C51.3954 56.833 50.2423 57.9732 48.9966 59.0413C48.0604 59.876 47.1924 60.7826 46.3125 61.6758C45.161 62.8447 44.0079 63.9849 42.7622 65.053C41.826 65.8877 40.958 66.7943 40.0781 67.6875C38.9266 68.8565 37.7735 69.9966 36.5278 71.0647C35.5916 71.8995 34.7236 72.806 33.8438 73.6992C32.6922 74.8682 31.5392 76.0083 30.2934 77.0765C29.3573 77.9112 28.4892 78.8177 27.6094 79.7109C25.4974 81.8549 25.4974 81.8549 24.4983 82.7107C23.3627 83.6841 22.3268 84.7555 21.2776 85.8201C20.8795 86.2238 20.4808 86.6271 20.0817 87.0299C19.8206 87.2948 19.8206 87.2948 19.5542 87.5652C19.1484 87.9492 19.1484 87.9492 18.9258 87.9492C19.0724 85.562 19.4967 83.2132 19.8833 80.8561C19.9599 80.3846 20.0365 79.9131 20.1131 79.4416C20.3215 78.159 20.5309 76.8765 20.7405 75.594C20.9632 74.2309 21.1848 72.8675 21.4065 71.5041C21.784 69.1834 22.1621 66.8627 22.5407 64.5421C23.127 60.9474 23.7125 57.3526 24.2976 53.7577C24.3216 53.6101 24.3456 53.4625 24.3704 53.3104C24.5878 51.9746 24.8052 50.6387 25.0226 49.3029C25.2624 47.8299 25.5021 46.357 25.7419 44.8841C26.84 38.1405 27.9357 31.3965 29.017 24.6502C29.0957 24.159 29.1745 23.6678 29.2532 23.1766C29.7053 20.3577 30.1564 17.5386 30.6049 14.7191C30.7575 13.761 30.9108 12.803 31.0642 11.8451C31.1637 11.2225 31.2621 10.5997 31.3604 9.97697C31.4186 9.61362 31.4769 9.25028 31.5352 8.88695C31.5722 8.64944 31.5722 8.64944 31.61 8.40712C32.0215 5.86879 32.0215 5.86879 32.7583 5.02368C33.5781 4.57811 34.2645 4.48338 35.1797 4.67578Z" fill="#DDBE9D"/>
<path d="M49.207 31.1719C49.354 31.1719 49.5009 31.1719 49.6523 31.1719C49.7149 31.2981 49.7774 31.4243 49.8418 31.5544C51.0163 33.9222 52.2011 36.2829 53.4393 38.6181C54.4173 40.4633 55.3755 42.3188 56.3327 44.1748C56.4576 44.4164 56.5826 44.658 56.7112 44.907C56.8322 45.142 56.9532 45.3771 57.0778 45.6193C57.3242 46.084 57.5798 46.544 57.8441 46.9987C57.9685 47.2131 58.0929 47.4275 58.2211 47.6484C58.3341 47.8367 58.4472 48.025 58.5636 48.219C58.8288 48.8804 58.78 49.2053 58.5586 49.875C58.1611 50.3673 58.1611 50.3673 57.6541 50.8491C57.4907 51.007 57.3274 51.1648 57.1592 51.3275C56.6903 51.7552 56.2159 52.1702 55.7345 52.5834C54.6176 53.5562 53.5858 54.6094 52.5469 55.6641C51.3954 56.833 50.2423 57.9732 48.9966 59.0413C48.0604 59.876 47.1924 60.7826 46.3125 61.6758C45.161 62.8447 44.0079 63.9849 42.7622 65.053C41.826 65.8877 40.958 66.7943 40.0781 67.6875C38.9266 68.8565 37.7735 69.9966 36.5278 71.0647C35.5916 71.8995 34.7236 72.806 33.8438 73.6992C32.6922 74.8682 31.5392 76.0083 30.2934 77.0765C29.3573 77.9112 28.4892 78.8177 27.6094 79.7109C26.4558 80.882 25.301 82.0252 24.053 83.0952C23.1589 83.8892 22.327 84.7478 21.4863 85.5974C21.2117 85.8736 21.2117 85.8736 20.9314 86.1554C20.485 86.6044 20.0391 87.0539 19.5938 87.5039C19.4468 87.4304 19.2998 87.357 19.1484 87.2812C19.2084 87.1725 19.2683 87.0638 19.3301 86.9517C20.9294 84.0459 22.493 81.1224 24.0421 78.1897C25.1923 76.0121 26.3471 73.8373 27.512 71.6675C28.7006 69.4532 29.8827 67.2356 31.0605 65.0156C32.2384 62.7956 33.4205 60.5781 34.6091 58.3638C35.8466 56.058 37.0739 53.7471 38.2969 51.4336C39.6524 48.8693 41.0149 46.3089 42.3874 43.7536C43.1379 42.3554 43.8847 40.9554 44.6269 39.5528C44.7106 39.3947 44.7943 39.2367 44.8806 39.0738C45.2855 38.3092 45.6899 37.5444 46.0934 36.7791C47.0933 34.8874 48.1342 33.0231 49.207 31.1719Z" fill="#DEBE9B"/>
<path d="M57 18.8005C57.2135 18.7932 57.2135 18.7932 57.4314 18.7858C58.4508 19.0966 59.0283 20.0203 59.5097 20.9168C59.6853 21.2648 59.8584 21.6139 60.0296 21.9641C60.1253 22.1554 60.221 22.3466 60.3197 22.5437C60.6338 23.1727 60.9448 23.8033 61.2557 24.4339C61.4736 24.8717 61.6916 25.3094 61.9099 25.747C62.4825 26.8965 63.0524 28.0473 63.6218 29.1984C64.2038 30.3738 64.7883 31.548 65.3727 32.7222C66.5178 35.0245 67.6602 37.3282 68.8008 39.6328C68.5898 39.8806 68.3786 40.1282 68.1674 40.3758C68.0498 40.5137 67.9322 40.6516 67.811 40.7937C67.3522 41.3208 66.8679 41.8172 66.3742 42.3116C66.1756 42.5105 65.9769 42.7095 65.7723 42.9144C65.5685 43.1173 65.3647 43.3202 65.1548 43.5293C64.9527 43.7322 64.7507 43.9351 64.5425 44.1442C63.5211 45.1641 62.4872 46.1516 61.3917 47.0915C60.869 47.5466 60.3807 48.0314 59.8945 48.5251C59.7246 48.6971 59.5547 48.869 59.3796 49.0461C59.1937 49.236 59.1937 49.236 59.0039 49.4297C58.5333 48.7238 58.1503 47.9919 57.7654 47.2379C57.6494 47.0119 57.6494 47.0119 57.531 46.7814C57.3654 46.4588 57.2 46.136 57.0348 45.8133C56.6031 44.9703 56.1701 44.128 55.7371 43.2858C55.6523 43.1206 55.5674 42.9555 55.48 42.7854C54.8614 41.5826 54.2368 40.3832 53.6045 39.1875C53.4369 38.87 53.2693 38.5526 53.1018 38.2351C53.0159 38.0724 52.93 37.9097 52.8415 37.7421C52.2127 36.5502 51.5857 35.3575 50.9604 34.1638C50.8309 33.9183 50.7014 33.6727 50.568 33.4197C50.4489 33.192 50.3299 32.9642 50.2072 32.7296C50.1002 32.5257 49.9931 32.3217 49.8827 32.1116C49.6523 31.6172 49.6523 31.6172 49.6523 31.1719C49.5054 31.0984 49.3584 31.0249 49.207 30.9492C50.3734 28.5985 51.5556 26.2568 52.7738 23.9325C52.9495 23.5963 53.124 23.2595 53.2976 22.9223C53.5538 22.4249 53.8132 21.9294 54.0733 21.4341C54.1496 21.2843 54.226 21.1345 54.3046 20.9801C54.8974 19.8647 55.6305 18.7978 57 18.8005Z" fill="#F3CEA7"/>
</svg>
