<svg width="106" height="102" viewBox="0 0 106 102" fill="none" xmlns="http://www.w3.org/2000/svg">
<path d="M46.52 0.587891C24.9267 3.19648 6.91495 18.8273 1.65636 39.5098C0.434875 44.3543 0.124328 46.8801 0.124328 52.1387C0.103625 54.8094 0.227843 57.5008 0.393468 58.6602C2.62941 74.8707 11.4903 88.2863 25.4857 96.7746C29.7505 99.3418 35.4025 101.723 37.2864 101.723C38.2181 101.723 38.4251 101.64 39.0462 101.019C39.5017 100.563 39.7501 100.108 39.7708 99.7145C39.8122 98.8863 39.7087 90.4395 39.688 90.4187C39.6673 90.398 38.8185 90.5223 37.7833 90.6879C35.5474 91.0398 32.1314 90.9363 30.3302 90.4395C27.9493 89.8184 26.1482 88.8039 24.554 87.1684C23.229 85.8641 22.8771 85.3051 21.5728 82.6758C19.8544 79.177 18.7157 77.6242 16.811 76.2992C13.8712 74.2289 13.395 73.318 15.0099 72.759C15.6517 72.552 16.1278 72.5312 17.1423 72.6969C19.9579 73.1523 22.5044 74.9535 24.4919 77.8934C26.9763 81.5785 29.0259 83.007 32.5454 83.5039C34.1603 83.7316 36.3755 83.4832 38.4458 82.8621C39.9157 82.4066 39.9157 82.4066 40.4747 80.15C40.8474 78.7008 41.8618 76.7754 42.7728 75.823L43.2903 75.2848L41.986 75.1398C39.8536 74.8914 35.92 74.0012 33.9946 73.318C30.5165 72.0965 28.2806 70.7715 25.8169 68.4113C21.2208 64.0223 19.0677 57.6457 19.3161 49.1367C19.3989 46.2176 19.5025 45.4516 19.9579 43.8574C20.7032 41.3523 21.7798 39.2406 23.3532 37.1703C24.347 35.8453 24.5954 35.3898 24.4505 35.1C24.0157 34.2719 23.6017 31.6219 23.6017 29.6965C23.6017 27.4812 23.9743 25.1625 24.6368 23.1336C25.1544 21.6223 25.4235 21.5187 27.6388 21.8293C30.4544 22.2227 34.4708 23.8789 38.1146 26.1562C39.5845 27.0879 39.7708 27.15 40.4126 26.9637C42.1517 26.4668 46.8099 25.7422 49.729 25.5352C54.4493 25.1832 60.8673 25.7422 64.9872 26.8602L66.1052 27.1707L67.9892 26.0113C71.6122 23.7754 75.4009 22.2227 78.2372 21.8086C80.4732 21.498 80.6595 21.6016 81.2392 23.4441C81.5083 24.3137 81.8396 25.7422 81.9845 26.6324C82.3364 28.7648 82.1501 32.6984 81.6325 34.334L81.2392 35.5762L82.1915 36.7355C85.297 40.607 86.5806 44.5199 86.5599 50.0891C86.5392 63.9809 80.2661 71.9102 67.306 74.498C65.981 74.7465 64.3661 75.0363 63.7036 75.1191L62.5028 75.2641L63.2275 76.0508C64.1177 77.0445 65.0493 78.8457 65.5462 80.5227C65.8568 81.5785 65.9189 83.0484 66.0224 90.957C66.1259 97.8719 66.2087 100.294 66.4157 100.625C66.7677 101.267 67.72 101.723 68.6517 101.723C70.5771 101.723 78.0302 98.348 82.295 95.5738C85.7111 93.3172 88.4853 91.0398 91.3009 88.1414C99.2716 79.9637 104.033 70.1504 105.607 58.6602C106.021 55.6789 105.959 48.1637 105.503 45.0996C101.942 21.498 83.1232 3.38281 59.2525 0.587891C56.0642 0.215233 49.6462 0.215233 46.52 0.587891Z" fill="#D5CABE"/>
</svg>
