<svg width="106" height="120" viewBox="0 0 106 120" fill="none" xmlns="http://www.w3.org/2000/svg">
<path d="M0.00203613 0C34.9814 0 69.9607 0 106 0C104.358 24.1102 104.358 24.1102 103.551 35.4375C103.522 35.85 103.492 36.2624 103.463 36.6749C103.402 37.531 103.341 38.3872 103.28 39.2433C103.186 40.5716 103.091 41.8999 102.997 43.2282C102.981 43.453 102.965 43.6778 102.948 43.9094C102.916 44.3667 102.883 44.8241 102.851 45.2814C102.552 49.4866 102.253 53.6918 101.953 57.897C101.697 61.4933 101.442 65.0896 101.186 68.6859C100.886 72.911 100.586 77.1361 100.285 81.3611C100.253 81.8106 100.221 82.2601 100.189 82.7095C100.165 83.0409 100.165 83.0409 100.141 83.379C100.031 84.9264 99.9213 86.4737 99.8115 88.021C99.6783 89.8956 99.545 91.7702 99.4113 93.6447C99.3433 94.5981 99.2755 95.5515 99.2079 96.5049C99.146 97.3778 99.0838 98.2507 99.0214 99.1235C98.9884 99.5863 98.9557 100.049 98.923 100.512C98.8104 102.082 98.6804 103.649 98.5123 105.214C95.5901 106.179 92.6679 107.144 89.7456 108.109C89.2639 108.268 88.7821 108.427 88.3004 108.586C82.8214 110.395 77.3422 112.204 71.862 114.01C71.6515 114.079 71.441 114.148 71.2242 114.22C69.2232 114.879 67.2223 115.538 65.2212 116.197C64.6691 116.379 64.1171 116.561 63.5651 116.743C62.8746 116.97 62.1839 117.198 61.4931 117.424C60.056 117.897 58.6208 118.373 57.1916 118.869C56.8497 118.986 56.8497 118.986 56.5009 119.106C56.0972 119.246 55.6941 119.388 55.292 119.532C55.1184 119.592 54.9448 119.652 54.7659 119.713C54.6209 119.765 54.4759 119.816 54.3266 119.869C53.0533 120.14 51.9506 119.968 50.7326 119.561C50.4519 119.469 50.1713 119.376 49.8821 119.281C49.5747 119.177 49.2674 119.073 48.9601 118.969C48.6321 118.86 48.3041 118.751 47.976 118.643C47.2683 118.408 46.5612 118.172 45.8544 117.935C44.7238 117.555 43.5921 117.179 42.4602 116.803C41.0547 116.336 39.6494 115.869 38.2444 115.4C34.444 114.132 30.6393 112.878 26.8343 111.625C25.6264 111.227 24.4185 110.828 23.2109 110.429C22.4409 110.175 21.6709 109.921 20.9009 109.667C20.5546 109.553 20.2084 109.438 19.8622 109.324C17.0546 108.396 14.2424 107.482 11.43 106.569C11.0242 106.438 10.6184 106.306 10.2125 106.174C9.22695 105.854 8.24136 105.534 7.25576 105.214C6.33031 92.2843 5.40609 79.3545 4.48352 66.4245C4.37456 64.8975 4.2656 63.3706 4.15663 61.8436C4.13494 61.5397 4.11325 61.2357 4.0909 60.9225C3.73975 56.0022 3.38778 51.082 3.0355 46.1618C2.67398 41.1122 2.31335 36.0625 1.95353 31.0128C1.73152 27.8975 1.50883 24.7823 1.28525 21.6672C1.13195 19.5302 0.979503 17.3932 0.827729 15.2561C0.740175 14.0236 0.652247 12.7912 0.563296 11.5588C0.481757 10.429 0.401305 9.29916 0.321692 8.16923C0.29281 7.76198 0.26354 7.35477 0.233828 6.94758C0.193239 6.39053 0.154116 5.8334 0.11532 5.27623C0.0932851 4.96782 0.07125 4.65942 0.0485472 4.34167C-0.0148344 2.89575 0.00203613 1.44731 0.00203613 0ZM18.9553 17.5747C19.1032 20.5365 19.2616 23.4922 19.4699 26.4494C19.4973 26.8426 19.5246 27.2358 19.5519 27.629C19.6249 28.6799 19.6985 29.7308 19.7723 30.7816C19.8341 31.6629 19.8957 32.5441 19.9572 33.4254C20.1023 35.5028 20.2479 37.5802 20.3938 39.6576C20.544 41.7969 20.6934 43.9363 20.8424 46.0757C20.9708 47.9205 21.0999 49.7652 21.2293 51.6098C21.3064 52.7083 21.3832 53.8069 21.4596 54.9055C21.5312 55.9353 21.6035 56.9651 21.6763 57.9949C21.7028 58.3722 21.7291 58.7495 21.7552 59.1268C21.7908 59.6422 21.8273 60.1576 21.864 60.673C21.8842 60.9611 21.9044 61.2492 21.9252 61.546C21.9925 62.2806 22.1101 63.0101 22.2312 63.7377C37.9063 63.7377 53.5813 63.7377 69.7314 63.7377C69.5769 65.439 69.4225 67.1402 69.2634 68.893C69.1481 70.3684 69.0336 71.8434 68.9282 73.3195C68.8826 73.9532 68.8354 74.5868 68.7881 75.2204C68.6283 77.4136 68.5218 79.5812 68.5614 81.7811C68.4097 81.8202 68.2581 81.8593 68.1018 81.8995C66.3865 82.3531 64.7196 82.9041 63.0462 83.4919C62.4884 83.6843 61.9306 83.8763 61.3726 84.0681C60.5034 84.3675 59.6349 84.6683 58.768 84.9739C57.924 85.2708 57.0779 85.5609 56.2312 85.8499C55.845 85.9886 55.845 85.9886 55.4511 86.1301C53.8531 86.6674 52.8338 86.7892 51.2461 86.2334C51.0244 86.165 50.8027 86.0966 50.5743 86.0261C49.7963 85.7841 49.0232 85.5299 48.2499 85.2732C47.9689 85.1808 47.6879 85.0884 47.3984 84.9932C46.6575 84.7494 45.917 84.5047 45.1766 84.2596C44.4213 84.0098 43.6657 83.7612 42.9102 83.5125C39.2473 82.3061 39.2473 82.3061 37.6746 81.7811C37.2216 80.8739 37.3292 79.756 37.2724 78.7559C37.2872 78.0625 37.2872 78.0625 36.9726 77.7975C36.5418 77.7755 36.1101 77.77 35.6788 77.7709C35.4024 77.7709 35.126 77.771 34.8413 77.771C34.3901 77.7728 34.3901 77.7728 33.9298 77.7746C33.6237 77.775 33.3176 77.7753 33.0023 77.7757C32.1871 77.7765 31.372 77.7789 30.5569 77.7814C29.7256 77.7838 28.8944 77.7849 28.0631 77.7861C26.4311 77.7886 24.7991 77.7926 23.1672 77.7975C23.2624 79.5884 23.3637 81.3789 23.4726 83.169C23.5231 84.0002 23.5714 84.8315 23.615 85.6631C23.6652 86.6192 23.7244 87.5745 23.7841 88.53C23.7986 88.8288 23.813 89.1276 23.8279 89.4354C23.8465 89.7122 23.8652 89.9889 23.8844 90.2741C23.8984 90.5181 23.9124 90.7621 23.9269 91.0136C24.0504 91.6603 24.0504 91.6603 24.6063 92.0248C25.3291 92.3513 26.047 92.6212 26.8002 92.87C26.9494 92.9197 27.0987 92.9695 27.2525 93.0207C27.7464 93.185 28.2409 93.3472 28.7354 93.5095C29.0857 93.6257 29.436 93.7419 29.7862 93.8583C30.7209 94.1687 31.6562 94.4774 32.5916 94.7858C34.1307 95.2938 35.6689 95.8049 37.2072 96.3155C37.5892 96.4422 37.9711 96.5689 38.3531 96.6956C40.6773 97.4662 42.9985 98.2439 45.3131 99.0428C45.5399 99.1211 45.7667 99.1993 46.0004 99.2799C47.0055 99.6273 48.0098 99.9768 49.0133 100.329C49.3582 100.448 49.703 100.568 50.0478 100.688C50.477 100.838 50.477 100.838 50.9148 100.992C52.9534 101.6 54.1112 101.323 56.1118 100.635C56.3855 100.544 56.6593 100.453 56.9413 100.359C57.6885 100.11 58.4346 99.8574 59.1803 99.6036C59.9614 99.3386 60.7437 99.0774 61.5259 98.8158C62.8378 98.3764 64.1489 97.9345 65.4593 97.4907C67.3094 96.8643 69.1611 96.2426 71.0132 95.6219C72.2951 95.192 73.5767 94.761 74.8582 94.3297C75.1692 94.2251 75.4802 94.1204 75.7912 94.0158C76.8121 93.6725 77.8326 93.3278 78.8528 92.9824C79.112 92.8952 79.3711 92.8081 79.6381 92.7182C79.8723 92.6387 80.1065 92.5592 80.3478 92.4773C80.5526 92.408 80.7573 92.3388 80.9682 92.2675C81.4242 92.1305 81.4242 92.1305 81.6649 91.8573C81.722 91.3643 81.7637 90.8695 81.7997 90.3745C81.8172 90.1394 81.8172 90.1394 81.835 89.8995C81.8741 89.3704 81.9117 88.8412 81.9492 88.312C81.9769 87.934 82.0046 87.5561 82.0323 87.1782C82.1078 86.1478 82.1819 85.1173 82.2556 84.0868C82.3174 83.2257 82.3799 82.3647 82.4424 81.5036C82.5899 79.4693 82.7365 77.435 82.8822 75.4005C83.0323 73.3071 83.1839 71.2138 83.3364 69.1205C83.4675 67.3213 83.5976 65.5221 83.7269 63.7227C83.8041 62.6492 83.8816 61.5756 83.96 60.5021C84.0338 59.4896 84.1065 58.4769 84.1783 57.4642C84.2047 57.0949 84.2315 56.7256 84.2587 56.3563C84.2962 55.847 84.3321 55.3376 84.3678 54.8282C84.3984 54.403 84.3984 54.403 84.4296 53.9691C84.4907 52.5399 84.4728 51.1084 84.4728 49.6779C68.18 49.6779 51.8872 49.6779 35.1007 49.6779C34.9849 47.2421 34.9849 47.2421 34.8667 44.757C34.5578 40.4266 34.249 36.0962 33.9307 31.6345C51.0729 31.6345 68.2151 31.6345 85.8768 31.6345C86.2558 26.9529 86.609 22.2673 86.8127 17.5747C64.4198 17.5747 42.0268 17.5747 18.9553 17.5747Z" fill="#D5CABE"/>
</svg>
