<svg width="101" height="101" viewBox="0 0 101 101" fill="none" xmlns="http://www.w3.org/2000/svg">
<g clip-path="url(#clip0_3_209)">
<path d="M0 0C33.33 0 66.66 0 101 0C101 33.33 101 66.66 101 101C67.67 101 34.34 101 0 101C0 67.67 0 34.34 0 0Z" fill="#D5CABE"/>
<path d="M86.1804 48.3917C86.4567 48.6284 86.7278 48.8713 86.9941 49.1191C87.1579 49.2674 87.3217 49.4156 87.4904 49.5684C88.6654 50.6818 89.5428 51.8598 90.3477 53.2617C89.7661 53.8852 89.1645 54.3359 88.4444 54.7905C88.2297 54.9268 88.0151 55.0631 87.794 55.2035C87.5685 55.3454 87.343 55.4871 87.1174 55.6289C86.8934 55.7706 86.6694 55.9124 86.4455 56.0542C86.0312 56.3168 85.6165 56.5788 85.2015 56.8402C84.7922 57.1015 84.3885 57.3718 83.989 57.6478C83.4434 57.9961 83.4434 57.9961 83.0149 57.9953C82.5488 57.7413 82.3216 57.4528 82.0132 57.0221C81.8591 56.8119 81.8591 56.8119 81.7019 56.5975C81.4707 56.2207 81.4707 56.2207 81.4707 55.8262C81.3586 55.7715 81.2464 55.7168 81.1309 55.6605C80.5276 55.3531 79.9473 55.0088 79.3632 54.6665C78.1357 54.0724 76.5635 54.0374 75.2561 54.376C74.1813 54.8015 73.3993 55.4274 72.791 56.418C72.3884 57.6135 72.3821 59.0746 72.902 60.2276C74.3341 62.6374 77.5948 63.5768 80.0255 64.6524C86.3548 67.4541 86.3548 67.4541 88.7695 69.6348C88.9353 69.78 89.1011 69.9251 89.2719 70.0747C91.8238 72.4448 93.0087 75.3639 93.1564 78.8022C93.2394 82.2661 92.6198 85.5356 90.286 88.2394C86.9076 91.7524 82.4824 93.0591 77.706 93.1656C75.666 93.1852 73.7853 93.0154 71.8047 92.5176C71.5893 92.4649 71.3739 92.4123 71.152 92.3581C68.5101 91.6305 66.1652 90.3794 64.1113 88.5723C63.8748 88.3957 63.8748 88.3957 63.6336 88.2155C63.0062 87.6822 62.5289 87.0893 62.0277 86.4393C61.8891 86.2644 61.8891 86.2644 61.7476 86.086C60.166 84.0576 60.166 84.0576 60.166 83.2461C60.9127 82.818 61.6596 82.3902 62.4067 81.9626C62.6598 81.8177 62.9129 81.6727 63.1659 81.5276C64.721 80.636 66.2811 79.7565 67.8594 78.9062C67.9835 79.0753 68.1076 79.2444 68.2354 79.4187C69.9181 81.6809 71.886 83.8749 74.8238 84.3804C77.4079 84.62 79.5888 84.4529 81.9639 83.3077C83.0059 82.3439 83.5002 81.3282 83.579 79.9049C83.5133 78.6139 83.1189 77.6999 82.2598 76.7363C80.1484 74.9352 77.1405 73.9147 74.61 72.8429C70.6989 71.1801 66.9976 69.2179 64.7031 65.4922C64.6085 65.3391 64.5139 65.186 64.4165 65.0283C62.6897 61.918 62.4418 58.1494 63.3544 54.753C64.3273 51.4957 66.5312 49.0032 69.4914 47.3853C74.5704 44.9363 81.5096 44.9315 86.1804 48.3917Z" fill="#ECECEC"/>
<path d="M45.5684 46.3574C48.693 46.3574 51.8177 46.3574 55.0371 46.3574C55.0594 50.8126 55.0776 55.2678 55.0882 59.7231C55.0933 61.7921 55.1002 63.8612 55.1115 65.9302C55.1214 67.7354 55.1277 69.5407 55.1299 71.3459C55.1312 72.3001 55.1341 73.2542 55.1414 74.2084C55.2205 85.052 55.2205 85.052 51.605 89.2419C48.727 92.1242 44.7114 93.1481 40.7354 93.1833C38.1185 93.1601 35.6971 92.706 33.3379 91.5312C33.1459 91.4387 32.9539 91.3461 32.7561 91.2508C30.0765 89.8356 28.0231 87.4936 26.6309 84.8242C26.6309 84.6289 26.6309 84.4336 26.6309 84.2324C27.0885 83.8943 27.0885 83.8943 27.7266 83.5258C27.8401 83.4594 27.9537 83.393 28.0707 83.3246C28.4362 83.1114 28.8033 82.9013 29.1707 82.6913C29.4107 82.5521 29.6506 82.4128 29.8904 82.2733C30.2436 82.0678 30.597 81.8627 30.9513 81.6591C31.8257 81.1564 32.6853 80.6327 33.5383 80.0947C33.9297 79.8926 33.9297 79.8926 34.5215 79.8926C34.8259 80.3232 35.0943 80.7459 35.3599 81.1995C36.19 82.5493 37.0634 83.7558 38.6109 84.3357C40.3349 84.6977 42.0737 84.644 43.6049 83.7339C44.7288 82.8865 45.1003 81.6166 45.3711 80.2871C45.4583 79.174 45.4576 78.0645 45.4564 76.9485C45.4582 76.614 45.4602 76.2794 45.4625 75.9448C45.4679 75.0418 45.4697 74.1388 45.4709 73.2357C45.4728 72.29 45.478 71.3443 45.4828 70.3987C45.4914 68.6102 45.497 66.8218 45.5016 65.0333C45.5069 62.9963 45.5156 60.9592 45.5245 58.9221C45.5428 54.7339 45.5565 50.5457 45.5684 46.3574Z" fill="#ECECEC"/>
</g>
<defs>
<clipPath id="clip0_3_209">
<rect width="101" height="101" fill="white"/>
</clipPath>
</defs>
</svg>
