<svg width="96" height="109" viewBox="0 0 96 109" fill="none" xmlns="http://www.w3.org/2000/svg">
<path d="M46.2227 1.09571C45.4102 1.42579 3.13477 25.9024 2.34766 26.4863C1.89062 26.8164 1.28125 27.5781 0.951172 28.1621L0.392578 29.2285V55V80.7715L1.02734 81.9141C1.58594 82.9297 2.47461 83.5898 8.26367 87.4492C11.8945 89.8867 15.373 92.0957 16.0078 92.375C18.4199 93.4922 25.6055 92.4258 29.8457 90.3184C33.3496 88.5664 35.457 86.2559 36.5488 82.9805C37.082 81.4063 37.082 81.1523 37.0312 59.1133L36.9551 36.8203L36.3203 35.8809C35.9648 35.3477 35.2285 34.6113 34.6953 34.2305C33.8066 33.6211 33.4512 33.5449 31.7246 33.5449C29.9473 33.5449 29.668 33.6211 28.6777 34.3066C28.0938 34.7129 27.332 35.5762 27.002 36.1856L26.418 37.3027V58.4531V79.6035L25.8594 80.1113C25.2246 80.7207 22.7363 81.584 20.9336 81.8125L19.6641 81.9648L15.4238 79.2227L11.1836 76.4551V55.1016V33.7734L29.3887 23.2617C39.3926 17.4727 47.7715 12.75 48 12.75C48.2031 12.7246 56.582 17.4473 66.6113 23.2363L84.8164 33.7481V55V76.252L66.6113 86.7637C56.6074 92.5527 48.3301 97.3262 48.2031 97.377C48.0762 97.4023 46.0195 96.3359 43.6328 94.9648C39.9512 92.8574 39.0879 92.4766 37.9199 92.375C32.9941 91.9688 30.0996 97.707 33.4766 101.236C34.0352 101.795 36.8789 103.623 40.2559 105.578L46.0957 108.955H48H49.9043L60.8223 102.633C66.8398 99.1543 76.4883 93.5684 82.2773 90.2168C88.0664 86.8906 93.1953 83.8691 93.6523 83.5391C94.1094 83.1836 94.7188 82.4219 95.0488 81.8379L95.6074 80.7715V55V29.2285L95.0488 28.1621C94.7188 27.5781 94.1094 26.8164 93.6523 26.4609C93.1953 26.1309 83.166 20.2656 71.3594 13.4609L49.9043 1.07032L48.2539 0.994148C47.3398 0.968758 46.4258 0.994148 46.2227 1.09571Z" fill="#D5CABE"/>
<path d="M55.6172 33.9004C49.7012 35.2207 45.9688 37.7852 43.8613 42.0254C42.8711 44.0059 42.7949 44.3106 42.7188 46.6973C42.6426 48.1953 42.7441 49.8203 42.9219 50.6582C43.7852 54.5176 46.4258 57.4883 51.0469 59.8242C53.2051 60.916 56.1504 61.9063 61.0762 63.2266C62.9043 63.709 65.0625 64.3438 65.9004 64.6738C68.3379 65.5625 70.1406 67.7715 69.4043 68.9395C68.1348 70.9707 60.7461 71.9102 56.5312 70.5898C54.7285 70.0313 53.332 68.8379 53.332 67.8477C53.332 67.4668 53.1035 66.7559 52.8496 66.2227C50.1582 61.0176 42.668 62.8203 42.668 68.6855C42.668 73.5098 46.4766 78.4102 51.7578 80.3906C56.8867 82.3203 63.7168 82.5996 69.0742 81.127C76.2852 79.1465 80.9824 73.5352 80.4238 67.543C79.9414 62.5664 76.8184 58.0723 72.1973 55.6855C69.4805 54.3145 68.1348 53.832 62.4473 52.334C56.0234 50.6328 53.332 49.1856 53.332 47.459C53.332 45.2754 58.918 43.6504 63.9707 44.3359C67.7031 44.8438 69.3789 45.7832 69.709 47.5859C70.2422 50.4297 72.3242 52.207 75.0918 52.207C78.0879 52.1816 80.5 49.7695 80.5 46.8242C80.4746 42.4316 77.377 37.9629 72.8574 35.7285C69.4551 34.0527 67.3984 33.6211 62.2188 33.5195C58.5625 33.4434 57.3945 33.4941 55.6172 33.9004Z" fill="#D5CABE"/>
</svg>
