<svg width="124" height="124" viewBox="0 0 124 124" fill="none" xmlns="http://www.w3.org/2000/svg">
<g clip-path="url(#clip0_3_223)">
<path d="M69.8435 2.01413C77.2034 6.75575 81.3958 15.1663 84.0389 23.25C84.2146 23.2207 84.3903 23.1913 84.5713 23.1611C93.6666 21.6871 103.489 21.0549 111.534 26.3142C114.68 28.6001 116.404 31.9399 117.105 35.716C118.207 44.011 113.607 51.8114 108.787 58.1619C108.05 59.1218 107.31 60.0793 106.562 61.0312C106.894 61.7709 107.274 62.28 107.834 62.8628C113.971 69.6679 118.488 78.0086 118.219 87.3134C118.018 91.0997 116.018 94.1089 113.344 96.6328C107.658 101.448 99.4403 101.842 92.3577 101.312C90.09 101.095 87.8397 100.729 85.5943 100.351C84.9866 100.248 84.9866 100.248 84.2811 100.266C84.2143 100.444 84.1476 100.623 84.0788 100.807C81.571 107.477 78.7258 113.806 73.6248 118.914C73.4313 119.11 73.2377 119.307 73.0383 119.509C69.7114 122.7 65.8758 124.157 61.2975 124.115C56.281 123.955 52.507 121.214 49.1109 117.722C44.5817 112.806 42.0068 106.451 39.7186 100.266C39.4273 100.312 39.136 100.359 38.8359 100.408C29.9803 101.781 19.765 102.777 11.867 97.6016C8.7043 95.1448 6.37375 91.9435 5.81231 87.9141C5.01897 78.0477 10.3657 69.9336 16.3777 62.6266C16.7148 62.2375 17.069 61.875 17.4373 61.5156C17.0928 60.4783 16.5843 59.8178 15.8631 59.0029C10.6871 52.9829 6.23764 44.6949 6.78106 36.5703C7.24208 32.5535 9.07338 29.0321 12.2151 26.5195C16.9426 23.0936 22.5598 22.1799 28.2903 22.2056C28.4743 22.2057 28.6582 22.2058 28.8478 22.2059C32.1073 22.2124 35.2896 22.4711 38.5076 23.0078C38.7983 23.0556 39.0889 23.1033 39.3884 23.1526C39.5773 23.1847 39.7661 23.2169 39.9607 23.25C40.0068 23.1226 40.0528 22.9951 40.1002 22.8638C42.2848 16.8604 44.8458 11.0931 49.1639 6.29688C49.3646 6.07335 49.5654 5.84981 49.7722 5.61951C55.083 0.00633065 62.9396 -1.9923 69.8435 2.01413ZM53.3567 13.0024C51.353 15.807 49.8253 18.8936 48.4373 22.0391C48.329 22.2804 48.2206 22.5217 48.109 22.7704C47.6114 23.8228 47.6114 23.8228 47.5178 24.9526C47.6655 25.4666 47.6655 25.4666 48.1497 25.6569C48.4377 25.7327 48.4377 25.7327 48.7315 25.81C48.9499 25.871 49.1683 25.9319 49.3933 25.9947C49.6323 26.058 49.8713 26.1213 50.1175 26.1865C52.3481 26.8183 54.5116 27.5542 56.6717 28.3965C56.9358 28.4992 57.1999 28.602 57.472 28.7079C58.4986 29.1109 59.5171 29.5152 60.5164 29.9821C61.7721 30.4655 62.7437 30.3426 63.9629 29.8203C64.198 29.7221 64.4332 29.6239 64.6755 29.5228C64.9264 29.4158 65.1773 29.3089 65.4358 29.1987C68.4698 27.9417 71.552 26.8898 74.6785 25.8885C75.3064 25.6765 75.9183 25.4396 76.5311 25.1875C75.9119 20.8877 72.932 15.9126 70.2342 12.5938C70.0653 12.3852 69.8964 12.1767 69.7224 11.9618C67.9822 9.92181 65.6968 7.75112 62.9402 7.41605C58.7206 7.19907 55.8175 9.86236 53.3567 13.0024ZM15.8385 33.4389C14.52 35.2583 14.0912 37.271 14.2889 39.4766C15.4507 45.7969 18.9557 50.8637 23.0076 55.7031C23.87 54.9665 24.7298 54.2277 25.5809 53.478C25.9338 53.17 26.2871 52.8623 26.6404 52.5547C26.8558 52.3658 27.0713 52.1769 27.2932 51.9823C29.1258 50.3941 31.0363 48.9358 33.0061 47.5208C33.2063 47.3744 33.4065 47.2279 33.6128 47.0771C33.7919 46.9482 33.971 46.8193 34.1555 46.6865C35.2176 45.7322 35.4671 44.7612 35.6525 43.3762C35.6863 43.135 35.6863 43.135 35.7209 42.889C35.7692 42.5452 35.8164 42.2013 35.8625 41.8572C35.9837 40.9564 36.1138 40.057 36.2456 39.1577C36.2719 38.9785 36.2982 38.7993 36.3252 38.6146C36.6018 36.7722 36.987 34.9584 37.412 33.1448C37.4604 32.9375 37.5088 32.7301 37.5587 32.5165C37.6018 32.3391 37.6448 32.1617 37.6891 31.9789C37.8106 31.4095 37.8106 31.4095 37.7811 30.5156C31.3229 29.3552 20.8068 27.9859 15.8385 33.4389ZM86.2186 30.5156C86.3941 32.2047 86.7252 33.8539 87.0586 35.5182C87.5898 38.1725 88.0884 40.8208 88.392 43.513C88.5859 45.0915 88.9772 45.9797 90.2449 46.9882C90.5967 47.2512 90.95 47.5122 91.3045 47.7715C91.6784 48.0512 92.0521 48.3312 92.4256 48.6116C92.6982 48.8153 92.6982 48.8153 92.9763 49.0231C95.1335 50.6504 97.1426 52.4473 99.1264 54.2793C99.2975 54.4345 99.4686 54.5896 99.6448 54.7495C99.7944 54.8872 99.9439 55.0249 100.098 55.1667C100.522 55.5316 100.522 55.5316 101.234 55.4609C101.715 54.9581 102.14 54.4632 102.566 53.917C102.694 53.7551 102.821 53.5933 102.953 53.4265C106.396 48.9611 110.302 42.9204 109.711 37.0547C109.187 34.7871 108.074 33.1047 106.154 31.7871C102.947 29.9485 99.3175 29.6968 95.7093 29.7134C95.4483 29.7134 95.4483 29.7134 95.1821 29.7135C92.1489 29.7182 89.2072 29.9786 86.2186 30.5156ZM45.0467 32.4531C44.8388 33.4054 44.6319 34.3578 44.4258 35.3105C44.3556 35.6345 44.2852 35.9584 44.2144 36.2823C44.1127 36.7481 44.0121 37.214 43.9114 37.68C43.8506 37.9603 43.7897 38.2406 43.727 38.5294C43.571 39.2338 43.571 39.2338 43.5936 39.9609C44.5381 39.6105 45.3798 39.1681 46.2491 38.6601C46.5227 38.5011 46.7964 38.342 47.0783 38.1781C47.3648 38.0106 47.6513 37.843 47.9378 37.6753C48.4997 37.3471 49.0621 37.0196 49.6246 36.6924C49.8731 36.547 50.1216 36.4017 50.3776 36.252C51.0925 35.8488 51.8173 35.4778 52.5545 35.1172C52.5545 34.9573 52.5545 34.7975 52.5545 34.6328C51.6025 34.321 50.65 34.0107 49.6971 33.7015C49.3731 33.5962 49.0491 33.4905 48.7253 33.3844C48.2597 33.2319 47.7937 33.0809 47.3276 32.9299C47.0473 32.8386 46.767 32.7473 46.4782 32.6532C45.7789 32.4201 45.7789 32.4201 45.0467 32.4531ZM76.672 32.9299C76.2166 33.0774 76.2166 33.0774 75.752 33.2279C75.4314 33.3329 75.1109 33.4379 74.7903 33.543C74.467 33.6481 74.1436 33.7531 73.8202 33.858C73.0282 34.1153 72.2365 34.3736 71.4451 34.6328C71.4451 34.7927 71.4451 34.9525 71.4451 35.1172C71.8151 35.3068 71.8151 35.3068 72.1925 35.5003C74.3633 36.6255 76.4695 37.8185 78.5375 39.124C78.7117 39.2332 78.886 39.3423 79.0655 39.4548C79.2194 39.5525 79.3733 39.6503 79.5319 39.751C79.919 39.9992 79.919 39.9992 80.4061 39.9609C80.0982 37.405 79.5751 34.9478 78.9529 32.4531C78.0998 32.4531 77.4839 32.6654 76.672 32.9299ZM59.4568 39.7339C59.2365 39.8438 59.0161 39.9538 58.789 40.067C56.1744 41.3898 53.6295 42.8405 51.1014 44.3203C50.8841 44.4473 50.6669 44.5742 50.443 44.705C46.0531 47.0926 46.0531 47.0926 42.1404 50.1328C42.0635 50.7203 42.0155 51.2843 41.9872 51.8745C41.9771 52.0509 41.967 52.2273 41.9566 52.4091C41.9244 52.9873 41.896 53.5656 41.868 54.144C41.8578 54.3414 41.8476 54.5388 41.8371 54.7422C41.5738 59.862 41.5462 64.9767 41.8616 70.0961C41.8857 70.5062 41.9009 70.9169 41.9065 71.3277C41.9526 72.3948 42.0055 72.7668 42.797 73.5389C43.0883 73.7213 43.3845 73.896 43.6844 74.064C43.8461 74.1627 44.0078 74.2614 44.1744 74.3631C44.5237 74.5761 44.8747 74.7863 45.2271 74.9939C45.7739 75.3207 46.3085 75.6615 46.8423 76.009C49.8015 77.9314 52.8529 79.6769 55.9451 81.375C56.1982 81.5154 56.4513 81.6558 56.712 81.8005C57.4681 82.2183 58.2272 82.6301 58.9876 83.04C59.3354 83.2327 59.3354 83.2327 59.6903 83.4293C59.9083 83.545 60.1263 83.6607 60.3509 83.7798C60.5412 83.8828 60.7315 83.9858 60.9275 84.0919C61.9307 84.415 62.702 84.1521 63.6492 83.7503C63.8817 83.6295 64.1141 83.5088 64.3536 83.3844C64.6166 83.2484 64.8797 83.1124 65.1507 82.9722C65.4296 82.8248 65.7085 82.6773 65.9959 82.5254C66.2119 82.4122 66.2119 82.4122 66.4322 82.2966C70.4153 80.2077 74.2854 77.9288 78.0315 75.4386C78.6257 75.0442 79.2259 74.6721 79.8441 74.3166C80.1095 74.1583 80.3748 74 80.6482 73.8369C80.878 73.7064 81.1078 73.5759 81.3445 73.4415C82.1269 72.616 82.0657 71.8208 82.1014 70.7188C82.1202 70.4082 82.1202 70.4082 82.1393 70.0913C82.3564 66.4283 82.4144 62.7616 82.3436 59.0938C82.339 58.7265 82.3345 58.3591 82.3301 57.9918C82.3164 56.9819 82.2896 55.9729 82.2556 54.9635C82.2437 54.5618 82.2354 54.1599 82.2308 53.758C82.2591 51.5466 82.2591 51.5466 81.4529 49.5589C80.8875 49.1032 80.3219 48.7756 79.6795 48.4375C79.2107 48.1355 78.7431 47.8318 78.2765 47.5265C77.7614 47.2078 77.2451 46.8909 76.7278 46.5757C76.5913 46.4921 76.4547 46.4084 76.3139 46.3223C73.8165 44.7946 71.2741 43.361 68.6865 41.9916C68.0425 41.6499 67.4013 41.3034 66.7603 40.9562C66.3492 40.7353 65.938 40.5145 65.5267 40.2939C65.2495 40.1434 65.2495 40.1434 64.9667 39.9899C62.7943 38.8373 61.6681 38.5852 59.4568 39.7339ZM32.5892 57.2622C32.4372 57.3931 32.2853 57.524 32.1288 57.6588C30.8483 58.7653 29.5859 59.8906 28.3357 61.0312C28.6521 61.7371 28.9794 62.2115 29.5495 62.7322C29.6933 62.8646 29.8371 62.997 29.9852 63.1334C30.1352 63.2689 30.2852 63.4044 30.4398 63.5439C30.6577 63.7444 30.6577 63.7444 30.8801 63.9489C31.3208 64.3521 31.7649 64.751 32.2107 65.1484C32.3664 65.2884 32.5221 65.4283 32.6825 65.5725C32.8331 65.7054 32.9837 65.8383 33.1388 65.9753C33.3424 66.1559 33.3424 66.1559 33.5502 66.3401C33.8975 66.6494 33.8975 66.6494 34.3904 66.6016C34.3904 63.085 34.3904 59.5684 34.3904 55.9453C33.7885 55.9453 33.051 56.8623 32.5892 57.2622ZM89.6092 55.9453C89.6092 59.4619 89.6092 62.9784 89.6092 66.6016C90.5572 66.1275 91.2136 65.5779 91.9705 64.8608C92.9843 63.9097 94.0109 62.9952 95.1 62.1296C95.5273 61.7176 95.5273 61.7176 95.4217 60.7891C94.9602 60.2827 94.5119 59.8446 93.9988 59.3965C93.857 59.2693 93.7152 59.1422 93.5691 59.0112C91.7342 57.0738 91.7342 57.0738 89.6092 55.9453ZM22.7654 66.8438C18.0374 72.1954 12.9457 78.8374 13.2189 86.3313C13.4699 88.4547 14.5226 90.0215 16.1299 91.3936C20.3002 94.3514 26.3578 94.176 31.1814 93.772C31.3918 93.755 31.6021 93.7381 31.8188 93.7206C33.8318 93.5355 35.8002 93.1499 37.7811 92.7578C37.7116 92.4168 37.7116 92.4168 37.6408 92.0689C37.4626 91.1904 37.2871 90.3115 37.1124 89.4323C37.0335 89.036 36.9541 88.6398 36.8741 88.2437C36.4553 86.1627 36.0603 84.0961 35.8596 81.9814C35.7242 78.5959 35.7242 78.5959 34.1362 75.7732C33.5274 75.3162 32.8798 74.9545 32.2107 74.5938C31.8054 74.2846 31.4063 73.9668 31.0149 73.6401C30.8195 73.4844 30.6241 73.3286 30.4227 73.1681C28.3836 71.5215 26.4088 69.8178 24.5153 68.0053C23.9325 67.4548 23.5364 67.1007 22.7654 66.8438ZM100.294 67.261C100.115 67.448 99.9354 67.635 99.7508 67.8276C98.7512 68.8478 97.7208 69.7949 96.6326 70.7188C96.3982 70.9207 96.1637 71.1227 95.9221 71.3308C94.3378 72.6902 92.721 73.9913 91.0557 75.2503C90.8181 75.4333 90.5805 75.6162 90.3357 75.8047C90.0885 75.9805 89.8412 76.1563 89.5864 76.3375C88.7572 77.0356 88.6479 77.6521 88.5269 78.7327C88.4956 78.9831 88.4956 78.9831 88.4636 79.2386C88.4191 79.5974 88.3775 79.9565 88.3383 80.3158C88.2344 81.2672 88.1098 82.2159 87.9867 83.1649C87.9622 83.3581 87.9376 83.5512 87.9123 83.7503C87.6533 85.7366 87.2762 87.6941 86.8694 89.6548C86.8367 89.8137 86.804 89.9725 86.7702 90.1362C86.5896 91.0108 86.4058 91.8846 86.2186 92.7578C92.8051 94.1732 100.843 95.1862 107.05 91.8856C108.853 90.7045 110.11 89.2874 110.679 87.1875C111.334 81.0345 108.043 75.4188 104.383 70.7188C104.205 70.4899 104.027 70.2611 103.843 70.0253C103.383 69.4438 102.916 68.8695 102.445 68.2969C102.322 68.1414 102.2 67.9859 102.073 67.8257C101.805 67.4892 101.521 67.1646 101.234 66.8438C100.706 66.7893 100.706 66.7893 100.294 67.261ZM43.3514 82.8281C43.6724 85.4555 44.2031 88.003 44.8045 90.5781C45.739 90.9335 46.3549 90.6961 47.2812 90.3842C47.571 90.2873 47.8607 90.1903 48.1592 90.0904C48.4608 89.9866 48.7623 89.8828 49.0731 89.7759C49.3795 89.6737 49.686 89.5716 49.9926 89.4698C51.5195 89.0267 51.5195 89.0267 52.7967 88.1562C52.5472 88.0095 52.2978 87.8628 52.0408 87.7116C51.876 87.6147 51.7113 87.5177 51.5415 87.4179C51.174 87.2017 50.8065 86.9857 50.4389 86.7698C49.4684 86.1996 48.499 85.6276 47.5319 85.0513C47.3487 84.9425 47.1654 84.8337 46.9766 84.7215C46.6254 84.5129 46.2746 84.3036 45.9242 84.0936C45.0853 83.5963 44.2742 83.1572 43.3514 82.8281ZM79.2017 83.3787C78.9075 83.557 78.9075 83.557 78.6074 83.7389C78.3967 83.8679 78.1861 83.997 77.969 84.1299C77.5311 84.3956 77.0931 84.6611 76.655 84.9265C76.4331 85.0611 76.2113 85.1957 75.9827 85.3344C74.9795 85.94 73.9697 86.5343 72.9588 87.127C72.7814 87.231 72.6041 87.3351 72.4214 87.4423C72.0154 87.6805 71.6092 87.9184 71.2029 88.1562C72.0654 89.0187 73.3238 89.243 74.4644 89.6217C74.9241 89.7751 75.3823 89.9327 75.8404 90.0904C76.1302 90.1874 76.4199 90.2843 76.7184 90.3842C76.9842 90.4737 77.25 90.5632 77.5238 90.6554C78.213 90.8172 78.5437 90.8258 79.1951 90.5781C79.403 89.5914 79.6099 88.6044 79.816 87.6173C79.8862 87.2816 79.9567 86.9459 80.0274 86.6102C80.1291 86.1276 80.2298 85.6449 80.3304 85.162C80.4217 84.7264 80.4217 84.7264 80.5149 84.2819C80.6701 83.5588 80.6701 83.5588 80.6482 82.8281C80.016 82.8281 79.741 83.0495 79.2017 83.3787ZM60.2629 93.2469C60.0104 93.3536 59.7579 93.4603 59.4978 93.5702C59.2245 93.6867 58.9513 93.8033 58.6697 93.9233C56.0422 95.0222 53.3896 96.0055 50.6927 96.9204C50.5188 96.9794 50.345 97.0384 50.1658 97.0992C49.1869 97.4307 48.207 97.7595 47.2264 98.0859C47.3613 99.0519 47.5662 99.8776 47.9539 100.772C48.0523 101 48.1508 101.228 48.2522 101.463C48.3583 101.702 48.4643 101.941 48.5735 102.188C48.6833 102.437 48.7931 102.685 48.9062 102.941C50.9226 107.457 53.4268 112.55 57.7918 115.236C58.0097 115.372 58.2276 115.509 58.4521 115.649C60.1854 116.618 61.728 116.719 63.6951 116.492C68.204 115.127 71.1798 110.64 73.3067 106.72C75.6831 102.601 75.6831 102.601 76.7732 98.0859C76.5727 98.0192 76.3722 97.9524 76.1656 97.8837C75.212 97.5648 74.2592 97.2435 73.3069 96.9204C73.1337 96.8616 72.9604 96.8028 72.7819 96.7423C69.9761 95.7864 67.2284 94.733 64.5018 93.5702C64.1231 93.4102 64.1231 93.4102 63.7367 93.2469C63.5172 93.1523 63.2976 93.0576 63.0714 92.9601C61.9883 92.587 61.2681 92.8136 60.2629 93.2469Z" fill="#D5CABE"/>
<path d="M69.2656 53.0391C71.6068 54.8438 72.9661 57.6639 73.3828 60.5469C73.7058 64.041 72.709 66.9978 70.5758 69.7651C68.5371 71.9982 65.6919 73.1758 62.7265 73.45C59.3669 73.5593 56.3083 72.4689 53.811 70.189C51.5311 67.6917 50.4406 64.633 50.55 61.2734C50.8241 58.308 52.0017 55.4628 54.2348 53.4241C58.9057 49.8236 64.4295 49.6721 69.2656 53.0391Z" fill="#D5CABE"/>
</g>
<defs>
<clipPath id="clip0_3_223">
<rect width="124" height="124" fill="white"/>
</clipPath>
</defs>
</svg>
