<svg width="88" height="105" viewBox="0 0 88 105" fill="none" xmlns="http://www.w3.org/2000/svg">
<path d="M62.6084 0.025752C63.3169 0.0223484 64.0251 0.0113966 64.7336 0.000303952C71.5022 -0.0262787 78.7746 1.6873 83.768 6.50674C86.9871 9.93811 88.0704 13.4294 87.9965 18.1248C87.5307 25.2855 83.6267 31.3909 78.7527 36.3813C78.5429 36.6128 78.3332 36.8444 78.1171 37.0829C71.2131 44.5366 59.8181 47.7007 49.9758 48.0998C43.8524 48.2513 38.5899 47.4015 33.9779 43.0666C32.8678 41.8769 32.3094 40.8668 32.2034 39.2425C32.2361 38.8721 32.2361 38.8721 32.2695 38.4942C33.828 38.7557 34.6707 39.6253 35.8253 40.647C38.8287 42.5994 41.891 42.9731 45.4089 42.94C45.8389 42.9374 46.2689 42.9347 46.712 42.9319C50.82 42.8331 54.4772 41.9907 58.3282 40.6071C58.6027 40.5111 58.8771 40.4151 59.1599 40.3162C67.4866 37.3452 74.7863 31.8077 78.8668 23.8513C80.0452 21.0935 80.1557 18.2094 79.8091 15.2526C78.8333 12.8712 77.5105 11.5998 75.1954 10.5151C68.5589 7.86053 60.6291 8.347 53.7503 9.97042C53.3985 10.0426 53.0467 10.1148 52.6843 10.1891C39.0462 13.2011 21.9995 22.1032 13.9538 33.8984C11.4307 38.0295 10.4269 42.1206 11.1407 46.9457C12.8411 52.5963 17.575 56.4461 22.1277 59.8513C23.2004 60.6568 24.2582 61.4812 25.3146 62.3081C25.5187 62.4677 25.7228 62.6273 25.9332 62.7917C27.9699 64.3976 30.0204 66.0595 31.7688 67.9809C32.2928 68.5374 32.2928 68.5374 33.3479 68.5146C34.3583 68.4928 34.3583 68.4928 35.0866 68.0744C40.8255 67.2596 47.6315 66.8027 53.046 69.1309C53.3343 69.2543 53.6225 69.3778 53.9195 69.505C57.8661 71.4613 61.0084 74.887 62.6117 78.9813C63.4717 82.0956 62.9888 84.9737 61.4975 87.7946C60.3905 89.668 58.5093 90.7626 56.5675 91.6682C56.1027 91.6682 55.6378 91.6682 55.1589 91.6682C55.3405 90.2595 55.9714 89.7656 57.0517 88.895C58.7795 87.4035 59.735 86.1968 59.9349 83.877C59.8278 81.1213 58.3345 78.4557 56.3694 76.5699C50.9405 72.3406 44.4619 72.3462 37.9038 72.6523C37.1965 72.7503 36.4894 72.8565 35.7909 73.0045C35.8999 73.3458 36.0088 73.6872 36.121 74.0389C37.9505 80.5781 36.9124 87.2792 33.7372 93.1689C30.6563 98.6185 25.6267 102.219 19.6582 103.971C16.179 104.723 11.8641 105.034 8.67571 103.289C6.66229 101.934 5.70126 100.352 4.94929 98.0962C4.15506 93.8133 4.73182 89.8813 7.12957 86.2264C7.72788 85.4195 8.35765 84.669 9.02785 83.921C9.22123 83.699 9.41461 83.477 9.61384 83.2483C13.948 78.5991 19.6489 75.4949 25.1245 72.4135C25.7595 72.0469 26.3772 71.6505 26.9873 71.2437C26.0781 70.5827 25.1684 69.9225 24.2581 69.2629C23.8338 68.9552 23.8338 68.9552 23.4009 68.6413C21.5874 67.3309 19.7585 66.0463 17.9158 64.7773C14.8018 62.6273 11.8131 60.4267 9.02785 57.8622C8.83323 57.6849 8.6386 57.5076 8.43808 57.3249C5.6092 54.7196 3.4284 52.1388 1.6328 48.7064C1.3938 48.2747 1.3938 48.2747 1.14997 47.8343C-0.486077 44.449 -0.213609 40.4823 0.950514 36.9976C5.76592 25.1205 16.2927 17.2989 26.9873 11.0269C27.2128 10.8932 27.4384 10.7595 27.6708 10.6218C30.731 8.82795 33.9691 7.43159 37.2215 6.0308C37.6298 5.85487 38.0382 5.67894 38.4589 5.49768C42.5697 3.75466 46.6719 2.19673 51.0432 1.25482C51.3639 1.18174 51.6846 1.10865 52.0151 1.03336C55.5642 0.245788 58.9717 0.0362614 62.6084 0.025752Z" fill="#D5CABE"/>
<path d="M30.5091 75.4695C31.7389 79.1588 31.0949 84.0104 29.4527 87.4424C27.1719 91.9317 23.8066 95.5425 18.9021 97.1471C16.9494 97.5698 15.3188 97.6831 13.5621 96.6642C12.44 94.7566 12.622 92.9108 13.0985 90.7947C15.3021 84.3316 21.4236 80.2387 26.9877 76.8781C27.3134 76.6784 27.3134 76.6784 27.6457 76.4747C29.3282 75.4695 29.3282 75.4695 30.5091 75.4695Z" fill="#ECECEC"/>
</svg>
