<svg width="101" height="101" viewBox="0 0 101 101" fill="none" xmlns="http://www.w3.org/2000/svg">
<path d="M0 0C33.33 0 66.66 0 101 0C101 33.33 101 66.66 101 101C67.67 101 34.34 101 0 101C0 67.67 0 34.34 0 0Z" fill="#D5CABE"/>
<path d="M90.9052 47.7581C90.9052 50.8049 90.9052 53.8517 90.9052 56.9908C89.7827 56.4722 88.6602 55.9536 87.5037 55.4193C86.8482 55.198 86.243 55.0015 85.5778 54.8422C85.4331 54.8041 85.2884 54.766 85.1393 54.7267C83.4718 54.299 81.8557 54.1999 80.1378 54.1915C79.8289 54.1854 79.8289 54.1854 79.5137 54.1792C77.3897 54.1687 75.3416 54.606 73.7834 56.1168C73.0149 56.9855 72.7977 57.7268 72.8181 58.85C73.0316 60.197 73.8822 61.2286 74.973 62.0245C76.9504 63.2586 79.113 64.1777 81.2398 65.1299C85.8287 67.1873 90.3192 69.282 92.2753 74.1868C93.2185 76.9677 93.2539 80.1404 92.3058 82.9207C92.2524 83.0873 92.199 83.2539 92.144 83.4256C91.0763 86.3979 88.7553 88.5196 85.9212 89.8592C79.5728 92.724 71.2522 92.5225 64.6934 90.3853C63.5048 89.8992 63.5048 89.8992 62.2923 89.4031C62.2923 86.1619 62.2923 82.9207 62.2923 79.5812C63.7868 80.4196 63.7868 80.4196 64.4808 80.9194C68.2781 83.426 72.9939 84.1679 77.4812 83.609C79.0458 83.291 80.2689 82.7878 81.3759 81.6438C82.0297 80.6563 82.2712 79.7805 82.1012 78.599C81.6145 76.8719 80.1023 75.7165 78.5957 74.8306C76.8804 73.8802 75.0765 73.1396 73.2597 72.3989C68.9576 70.6419 64.7724 68.3982 62.8847 63.9705C61.7106 60.9342 61.6925 57.3256 62.9058 54.2974C64.5004 50.9391 67.4646 48.6436 70.9581 47.3892C77.2698 45.2795 84.6448 45.7094 90.9052 47.7581Z" fill="#ECECEC"/>
<path d="M23 47C34.88 47 46.76 47 59 47C59 49.7181 59 52.4362 59 55.2366C54.7524 55.2366 50.5048 55.2366 46.1285 55.2366C46.1285 67.3685 46.1285 79.5004 46.1285 92C42.7437 92 39.3589 92 35.8715 92C35.8715 79.8681 35.8715 67.7362 35.8715 55.2366C31.6239 55.2366 27.3763 55.2366 23 55.2366C23 52.5185 23 49.8004 23 47Z" fill="#ECECEC"/>
</svg>
