<svg width="108" height="108" viewBox="0 0 108 108" fill="none" xmlns="http://www.w3.org/2000/svg">
<g clip-path="url(#clip0_3_191)">
<path d="M53.9342 -0.0659189C54.2403 -0.0653421 54.2403 -0.0653421 54.5526 -0.0647537C57.5759 -0.0551713 60.5176 0.0521722 63.4923 0.632812C63.7762 0.683744 63.7762 0.683744 64.0657 0.735705C76.6819 3.01859 88.8138 10.2027 96.6095 20.4609C96.6974 20.5749 96.7853 20.6889 96.8759 20.8063C98.4966 22.9146 99.9188 25.121 101.25 27.4219C101.333 27.5647 101.416 27.7076 101.502 27.8548C104.647 33.3221 106.663 39.5431 107.578 45.7734C107.616 46.0275 107.653 46.2816 107.692 46.5434C108.029 49.0024 108.076 51.4417 108.066 53.9209C108.065 54.2278 108.065 54.2278 108.065 54.5409C108.055 57.5681 107.949 60.5136 107.367 63.4922C107.333 63.6814 107.299 63.8706 107.264 64.0656C104.982 76.6818 97.7975 88.8136 87.5392 96.6094C87.4252 96.6973 87.3113 96.7852 87.1939 96.8757C85.0855 98.4964 82.8792 99.9187 80.5783 101.25C80.4354 101.333 80.2926 101.416 80.1454 101.502C75.311 104.283 69.9163 106.098 64.4679 107.222C64.318 107.253 64.1681 107.284 64.0137 107.316C60.7141 107.946 57.4159 108.079 54.0661 108.066C53.862 108.066 53.658 108.065 53.4477 108.065C50.4244 108.055 47.4827 107.948 44.508 107.367C44.3187 107.333 44.1295 107.299 43.9346 107.264C31.3184 104.981 19.1865 97.7973 11.3908 87.5391C11.3029 87.4251 11.215 87.3111 11.1244 87.1937C9.50373 85.0854 8.0815 82.879 6.75015 80.5781C6.66698 80.4353 6.58381 80.2924 6.49812 80.1452C3.35345 74.6779 1.33717 68.4569 0.422025 62.2266C0.38462 61.9725 0.347215 61.7184 0.308677 61.4566C-0.0286064 58.9976 -0.0754514 56.5583 -0.0657683 54.0791C-0.0653838 53.8745 -0.0649993 53.6699 -0.0646031 53.4591C-0.055028 50.4319 0.0515689 47.4864 0.632962 44.5078C0.683895 44.224 0.683895 44.224 0.735856 43.9344C3.01875 31.3182 10.2028 19.1864 20.4611 11.3906C20.5751 11.3027 20.689 11.2148 20.8064 11.1243C22.9148 9.50358 25.1211 8.08135 27.422 6.75C27.5649 6.66683 27.7077 6.58366 27.8549 6.49797C32.6893 3.71733 38.084 1.9021 43.5324 0.777831C43.6823 0.746731 43.8322 0.715631 43.9866 0.683589C47.2862 0.0538645 50.5844 -0.0790624 53.9342 -0.0659189ZM19.8621 21.2355C10.7481 31.0581 6.37422 43.4234 6.75015 56.7422C7.22689 67.2227 11.6232 77.7254 18.7752 85.3992C19.1547 85.8077 19.5113 86.2273 19.8678 86.6558C27.4623 95.3128 39.2747 100.323 50.5962 101.21C62.831 101.958 75.0071 98.164 84.3636 90.1725C84.7116 89.8596 85.057 89.5439 85.3994 89.2249C85.8079 88.8454 86.2275 88.4889 86.6559 88.1323C95.313 80.5378 100.323 68.7254 101.21 57.4039C101.958 45.1691 98.1642 32.9931 90.1726 23.6365C89.8598 23.2886 89.5441 22.9431 89.2251 22.6008C88.8456 22.1923 88.489 21.7727 88.1325 21.3442C80.538 12.6872 68.7255 7.67735 57.4041 6.79048C43.307 5.92819 29.7807 11.215 19.8621 21.2355Z" fill="#D5CABE"/>
<path d="M53.7231 11.3379C53.9528 11.3377 53.9528 11.3377 54.1872 11.3375C59.6884 11.3455 64.9074 12.3342 70.0312 14.3438C70.1714 14.3986 70.3116 14.4535 70.456 14.51C74.1017 15.9629 81.0411 19.0666 82.8984 22.7812C82.753 22.7867 82.6075 22.7921 82.4576 22.7977C80.1767 22.9354 78.5662 23.6351 76.9922 25.3125C75.678 26.8929 75.2215 28.8621 75.3047 30.8892C75.6508 33.9527 77.3675 36.7541 78.9677 39.3349C81.1429 42.8549 82.7304 46.6491 82.8984 50.8359C82.9069 50.9983 82.9153 51.1606 82.924 51.3278C83.0687 56.5967 80.9158 61.9562 79.3561 66.9201C78.7135 68.9675 78.0862 71.0181 77.4857 73.0783C77.3917 73.4006 77.3917 73.4006 77.2957 73.7294C76.991 74.7742 76.6885 75.8195 76.3885 76.8657C76.2792 77.2421 76.1697 77.6185 76.0603 77.995C76.0112 78.1688 75.9621 78.3426 75.9115 78.5216C75.792 78.9297 75.6555 79.3328 75.5156 79.7344C75.3764 79.804 75.2372 79.8736 75.0938 79.9453C73.0865 74.0928 71.1138 68.2293 69.1611 62.3584C67.1574 56.3334 67.1574 56.3334 65.1138 50.3218C63.9417 46.9115 62.7944 43.4932 61.6535 40.0724C61.5153 39.6582 61.377 39.244 61.2386 38.8298C60.9814 38.0595 60.7247 37.2891 60.4682 36.5186C60.3508 36.1669 60.3508 36.1669 60.231 35.8082C60.1602 35.5951 60.0893 35.3819 60.0164 35.1623C59.9229 34.8817 59.9229 34.8817 59.8276 34.5955C59.6953 34.1719 59.6953 34.1719 59.6953 33.9609C59.8506 33.9429 60.006 33.9248 60.166 33.9062C60.8705 33.8239 61.5749 33.7408 62.2793 33.6577C62.5237 33.6293 62.7682 33.6009 63.0201 33.5716C63.2553 33.5437 63.4905 33.5159 63.7328 33.4872C63.9493 33.4617 64.1658 33.4363 64.3889 33.4102C64.8774 33.341 65.3377 33.2488 65.8125 33.1172C65.8517 32.8562 65.8908 32.5951 65.9312 32.3262C65.9532 32.1793 65.9752 32.0325 65.9979 31.8812C66.025 31.4014 65.9378 31.0466 65.8125 30.5859C64.2567 30.3428 62.7973 30.419 61.2308 30.5396C58.5535 30.7409 55.8806 30.849 53.1958 30.8496C53.0407 30.8497 52.8857 30.8497 52.7259 30.8498C49.8687 30.8441 47.0213 30.6975 44.1722 30.4881C43.9415 30.4724 43.9415 30.4724 43.7062 30.4564C43.2913 30.428 42.8766 30.397 42.4619 30.3658C41.7575 30.3751 41.328 30.4648 40.7109 30.7969C40.4572 31.3043 40.4788 31.6301 40.4868 32.1943C40.4887 32.3667 40.4906 32.5391 40.4926 32.7167C40.495 32.8489 40.4975 32.981 40.5 33.1172C42.3793 33.5512 44.281 33.7522 46.1953 33.9609C46.9509 35.7275 47.6368 37.5107 48.2849 39.3192C48.4291 39.7189 48.5733 40.1186 48.7175 40.5183C48.9168 41.0712 49.1156 41.6244 49.3144 42.1775C49.662 43.1447 50.0103 44.1117 50.3589 45.0785C50.5436 45.5907 50.7279 46.103 50.9119 46.6155C50.9971 46.852 51.0823 47.0886 51.1701 47.3323C51.2941 47.6775 51.2941 47.6775 51.4207 48.0297C51.5992 48.51 51.7857 48.9873 51.9786 49.462C52.0754 49.7002 52.1721 49.9384 52.2717 50.1838C52.3603 50.3954 52.4488 50.607 52.54 50.8251C53.0597 52.5462 52.4584 53.9757 51.9017 55.6108C51.8122 55.8791 51.7228 56.1474 51.6337 56.4157C51.392 57.1411 51.1477 57.8655 50.9028 58.5897C50.647 59.3479 50.3937 60.1069 50.1402 60.8658C49.6601 62.3014 49.1778 63.7363 48.6946 65.1709C48.1445 66.8048 47.5969 68.4395 47.0495 70.0743C45.9238 73.4359 44.795 76.7964 43.6641 80.1562C43.5248 80.1562 43.3856 80.1562 43.2422 80.1562C41.5639 75.2781 39.9124 70.3915 38.2852 65.4961C37.1646 62.1252 36.0387 58.7567 34.8838 55.3975C33.4667 51.2726 32.0844 47.136 30.7031 42.9991C30.5207 42.4531 30.338 41.9072 30.1553 41.3613C29.8656 40.4959 29.5767 39.6302 29.2882 38.7644C29.1802 38.4408 29.0721 38.1172 28.9637 37.7938C28.8138 37.3462 28.6647 36.8983 28.5159 36.4504C28.4315 36.1978 28.3472 35.9451 28.2604 35.6849C28.0838 35.1105 27.9473 34.5522 27.8438 33.9609C27.9991 33.9451 28.1544 33.9292 28.3144 33.9129C29.0192 33.8394 29.7234 33.7618 30.4277 33.6841C30.7944 33.6468 30.7944 33.6468 31.1685 33.6087C31.5213 33.5689 31.5213 33.5689 31.8812 33.5283C32.0977 33.5052 32.3142 33.482 32.5373 33.4581C33.1733 33.3156 33.5016 33.1553 33.9609 32.6953C34.0599 31.7717 34.06 31.3673 33.5391 30.5859C32.5323 30.362 31.6031 30.3701 30.5793 30.4467C30.2908 30.4667 30.0022 30.4866 29.7137 30.5065C29.5635 30.5174 29.4133 30.5283 29.2586 30.5394C25.6185 30.7998 21.9995 30.8471 18.3516 30.7969C18.6911 29.8947 19.1419 29.1901 19.7358 28.437C19.8292 28.3172 19.9225 28.1974 20.0187 28.0739C20.7562 27.1375 21.5346 26.2447 22.3429 25.3685C22.7429 24.9324 23.1251 24.4862 23.5063 24.0337C29.8963 16.7371 40.2971 12.2677 49.8261 11.4255C51.1241 11.3485 52.4232 11.339 53.7231 11.3379Z" fill="#D5CABE"/>
<path d="M54.633 57.5859C55.0849 58.1481 55.3857 58.6505 55.626 59.3296C55.6898 59.5078 55.7537 59.6859 55.8195 59.8695C55.8872 60.063 55.9549 60.2565 56.0247 60.4558C56.0977 60.6604 56.1706 60.8649 56.2458 61.0756C56.404 61.5196 56.5616 61.9638 56.7186 62.4082C57.1448 63.6144 57.576 64.8188 58.0064 66.0234C58.1391 66.3955 58.1391 66.3955 58.2744 66.7751C59.133 69.18 60.0117 71.5773 60.8952 73.9731C61.206 74.8166 61.5166 75.6601 61.8271 76.5036C61.9071 76.7209 61.9871 76.9381 62.0696 77.162C62.7703 79.0667 63.4667 80.9729 64.1623 82.8795C64.2177 83.0315 64.2732 83.1834 64.3303 83.34C64.8818 84.8516 65.433 86.3633 65.9838 87.8751C66.1882 88.436 66.3928 88.9969 66.5973 89.5577C66.7385 89.9451 66.8796 90.3324 67.0206 90.7198C67.1056 90.9529 67.1906 91.1859 67.2781 91.426C67.3519 91.6285 67.4257 91.8311 67.5018 92.0398C67.6425 92.4174 67.7918 92.7918 67.9491 93.1628C68.133 93.6562 68.133 93.6562 68.133 94.2891C66.4307 94.9099 64.7383 95.4308 62.9651 95.8052C62.813 95.8377 62.6609 95.8703 62.5042 95.9038C59.7581 96.4604 57.058 96.6951 54.2639 96.6885C54.1053 96.6886 53.9468 96.6887 53.7834 96.6888C49.8247 96.6818 46.0186 96.1412 42.1877 95.1328C41.9592 94.2942 42.0027 93.7975 42.2892 92.9814C42.3637 92.7649 42.4383 92.5484 42.5152 92.3253C42.5991 92.0902 42.683 91.8551 42.7694 91.6128C42.856 91.3638 42.9425 91.1147 43.0317 90.8581C43.2202 90.3168 43.4096 89.7759 43.6006 89.2355C43.9056 88.3724 44.2072 87.5081 44.5082 86.6436C44.8758 85.5885 45.2442 84.5338 45.6137 83.4793C46.2691 81.608 46.9176 79.7343 47.5617 77.859C47.6313 77.6563 47.6313 77.6563 47.7023 77.4495C47.8884 76.9078 48.0744 76.366 48.2603 75.8243C49.7183 71.576 51.1839 67.3304 52.6543 63.0865C52.8121 62.631 52.9698 62.1754 53.1274 61.7198C53.3422 61.099 53.5574 60.4783 53.7728 59.8576C53.8361 59.6746 53.8993 59.4916 53.9645 59.3031C54.3979 58.0562 54.3979 58.0562 54.633 57.5859Z" fill="#D5CABE"/>
<path d="M14.9764 36.4922C15.5251 36.7665 15.5328 36.9609 15.7344 37.5312C15.7983 37.7094 15.8622 37.8876 15.928 38.0712C15.9968 38.268 16.0656 38.4648 16.1365 38.6675C16.2465 38.9757 16.2465 38.9757 16.3586 39.2902C16.5181 39.738 16.677 40.1861 16.8353 40.6344C17.2634 41.8467 17.6965 43.0572 18.1289 44.268C18.2179 44.5177 18.3069 44.7673 18.3986 45.0246C19.2721 47.473 20.1675 49.9131 21.0672 52.3521C22.4084 55.9916 23.7387 59.6351 25.0618 63.2812C26.4214 67.0276 27.7916 70.7699 29.1725 74.5085C30.6462 78.4988 32.1142 82.4911 33.5607 86.4914C33.7296 86.9581 33.8988 87.4247 34.0683 87.8911C34.3007 88.5309 34.5318 89.1712 34.7625 89.8116C34.8315 90.0008 34.9004 90.19 34.9715 90.385C35.0334 90.5578 35.0953 90.7306 35.1591 90.9086C35.2132 91.0583 35.2673 91.208 35.323 91.3622C35.4373 91.7578 35.4373 91.7578 35.4373 92.3906C31.6516 90.9891 28.154 88.3491 25.2703 85.5739C24.778 85.1022 24.2775 84.656 23.7567 84.2168C22.9235 83.4911 22.2146 82.698 21.5154 81.8438C21.4298 81.7396 21.3441 81.6354 21.2558 81.5281C17.7353 77.225 14.9863 72.3833 13.2889 67.0781C13.2398 66.9298 13.1907 66.7815 13.1402 66.6287C9.943 56.8346 10.8815 45.8572 14.9764 36.4922Z" fill="#D5CABE"/>
<path d="M91.3361 33.5391C93.7456 36.6222 94.8778 40.8828 95.7131 44.6396C95.755 44.828 95.7969 45.0164 95.8402 45.2105C96.4492 48.1071 96.6908 50.9673 96.6755 53.9209C96.6751 54.0762 96.6747 54.2315 96.6743 54.3915C96.6633 57.0419 96.5015 59.6223 95.9767 62.2266C95.9417 62.4007 95.9066 62.5747 95.8704 62.7541C95.0087 66.8504 93.5548 70.7904 91.547 74.4609C91.4331 74.6733 91.3192 74.8857 91.2018 75.1045C89.6444 77.8911 87.771 80.4452 85.56 82.7435C85.1262 83.1968 84.7193 83.6528 84.3224 84.1377C83.6406 84.9407 82.8654 85.6032 82.0549 86.2734C81.9458 86.3651 81.8367 86.4568 81.7243 86.5513C79.7602 88.1979 77.7186 89.6057 75.5158 90.9141C75.2318 90.062 75.5183 89.5183 75.8133 88.7099C75.8711 88.5464 75.9289 88.3829 75.9885 88.2144C76.1167 87.8525 76.2458 87.4909 76.3757 87.1295C76.7415 86.1108 77.1007 85.0899 77.4612 84.0693C77.5403 83.8458 77.6195 83.6224 77.701 83.3921C78.6483 80.713 79.5681 78.0245 80.4892 75.3363C80.9892 73.8772 81.4902 72.4185 81.9914 70.9599C82.04 70.8183 82.0887 70.6768 82.1388 70.531C83.0049 68.0109 83.8784 65.4935 84.7575 62.978C84.8808 62.6249 85.004 62.2717 85.1273 61.9186C85.7449 60.1497 86.3646 58.3816 86.9863 56.6142C87.3156 55.6771 87.6437 54.7396 87.9715 53.802C88.1287 53.3532 88.2865 52.9046 88.4449 52.4562C90.3237 47.1354 91.3863 42.1109 91.3493 36.4395C91.3482 36.1563 91.3473 35.8731 91.3464 35.5899C91.344 34.9063 91.3405 34.2227 91.3361 33.5391Z" fill="#D5CABE"/>
</g>
<defs>
<clipPath id="clip0_3_191">
<rect width="108" height="108" fill="white"/>
</clipPath>
</defs>
</svg>
